<svg >
<symbol xmlns="http://www.w3.org/2000/svg" id="logout" fill="currentColor"  viewBox="0 0 16 16">
  <path fill-rule="evenodd" d="M10 12.5a.5.5 0 0 1-.5.5h-8a.5.5 0 0 1-.5-.5v-9a.5.5 0 0 1 .5-.5h8a.5.5 0 0 1 .5.5v2a.5.5 0 0 0 1 0v-2A1.5 1.5 0 0 0 9.5 2h-8A1.5 1.5 0 0 0 0 3.5v9A1.5 1.5 0 0 0 1.5 14h8a1.5 1.5 0 0 0 1.5-1.5v-2a.5.5 0 0 0-1 0z"/>
  <path fill-rule="evenodd" d="M15.854 8.354a.5.5 0 0 0 0-.708l-3-3a.5.5 0 0 0-.708.708L14.293 7.5H5.5a.5.5 0 0 0 0 1h8.793l-2.147 2.146a.5.5 0 0 0 .708.708z"/>
</symbol>
<symbol xmlns="http://www.w3.org/2000/svg" fill="currentColor" id="calendar" viewBox="0 0 16 16">
  <path d="M11 6.5a.5.5 0 0 1 .5-.5h1a.5.5 0 0 1 .5.5v1a.5.5 0 0 1-.5.5h-1a.5.5 0 0 1-.5-.5zm-3 0a.5.5 0 0 1 .5-.5h1a.5.5 0 0 1 .5.5v1a.5.5 0 0 1-.5.5h-1a.5.5 0 0 1-.5-.5zm-5 3a.5.5 0 0 1 .5-.5h1a.5.5 0 0 1 .5.5v1a.5.5 0 0 1-.5.5h-1a.5.5 0 0 1-.5-.5zm3 0a.5.5 0 0 1 .5-.5h1a.5.5 0 0 1 .5.5v1a.5.5 0 0 1-.5.5h-1a.5.5 0 0 1-.5-.5z"/>
  <path d="M3.5 0a.5.5 0 0 1 .5.5V1h8V.5a.5.5 0 0 1 1 0V1h1a2 2 0 0 1 2 2v11a2 2 0 0 1-2 2H2a2 2 0 0 1-2-2V3a2 2 0 0 1 2-2h1V.5a.5.5 0 0 1 .5-.5M1 4v10a1 1 0 0 0 1 1h12a1 1 0 0 0 1-1V4z"/>
</symbol>
<symbol xmlns="http://www.w3.org/2000/svg" fill="currentColor" id="plus" viewBox="0 0 16 16">
  <path d="M14 1a1 1 0 0 1 1 1v12a1 1 0 0 1-1 1H2a1 1 0 0 1-1-1V2a1 1 0 0 1 1-1zM2 0a2 2 0 0 0-2 2v12a2 2 0 0 0 2 2h12a2 2 0 0 0 2-2V2a2 2 0 0 0-2-2z"/>
  <path d="M8 4a.5.5 0 0 1 .5.5v3h3a.5.5 0 0 1 0 1h-3v3a.5.5 0 0 1-1 0v-3h-3a.5.5 0 0 1 0-1h3v-3A.5.5 0 0 1 8 4"/>
</symbol>
<symbol xmlns="http://www.w3.org/2000/svg" id="list" fill="currentColor" viewBox="0 0 16 16">
  <path d="M14.5 3a.5.5 0 0 1 .5.5v9a.5.5 0 0 1-.5.5h-13a.5.5 0 0 1-.5-.5v-9a.5.5 0 0 1 .5-.5zm-13-1A1.5 1.5 0 0 0 0 3.5v9A1.5 1.5 0 0 0 1.5 14h13a1.5 1.5 0 0 0 1.5-1.5v-9A1.5 1.5 0 0 0 14.5 2z"/>
  <path d="M5 8a.5.5 0 0 1 .5-.5h7a.5.5 0 0 1 0 1h-7A.5.5 0 0 1 5 8m0-2.5a.5.5 0 0 1 .5-.5h7a.5.5 0 0 1 0 1h-7a.5.5 0 0 1-.5-.5m0 5a.5.5 0 0 1 .5-.5h7a.5.5 0 0 1 0 1h-7a.5.5 0 0 1-.5-.5m-1-5a.5.5 0 1 1-1 0 .5.5 0 0 1 1 0M4 8a.5.5 0 1 1-1 0 .5.5 0 0 1 1 0m0 2.5a.5.5 0 1 1-1 0 .5.5 0 0 1 1 0"/>
</symbol>
<symbol xmlns="http://www.w3.org/2000/svg" id="check" viewBox="0 0 16 16">
  <path d="M3 14.5A1.5 1.5 0 0 1 1.5 13V3A1.5 1.5 0 0 1 3 1.5h8a.5.5 0 0 1 0 1H3a.5.5 0 0 0-.5.5v10a.5.5 0 0 0 .5.5h10a.5.5 0 0 0 .5-.5V8a.5.5 0 0 1 1 0v5a1.5 1.5 0 0 1-1.5 1.5z"/>
  <path d="m8.354 10.354 7-7a.5.5 0 0 0-.708-.708L8 9.293 5.354 6.646a.5.5 0 1 0-.708.708l3 3a.5.5 0 0 0 .708 0"/>
</symbol>
<symbol xmlns="http://www.w3.org/2000/svg" id="trash" viewBox="0 0 16 16">
  <path d="M11 1.5v1h3.5a.5.5 0 0 1 0 1h-.538l-.853 10.66A2 2 0 0 1 11.115 16h-6.23a2 2 0 0 1-1.994-1.84L2.038 3.5H1.5a.5.5 0 0 1 0-1H5v-1A1.5 1.5 0 0 1 6.5 0h3A1.5 1.5 0 0 1 11 1.5m-5 0v1h4v-1a.5.5 0 0 0-.5-.5h-3a.5.5 0 0 0-.5.5M4.5 5.029l.5 8.5a.5.5 0 1 0 .998-.06l-.5-8.5a.5.5 0 1 0-.998.06m6.53-.528a.5.5 0 0 0-.528.47l-.5 8.5a.5.5 0 0 0 .998.058l.5-8.5a.5.5 0 0 0-.47-.528M8 4.5a.5.5 0 0 0-.5.5v8.5a.5.5 0 0 0 1 0V5a.5.5 0 0 0-.5-.5"/>
</symbol>
<symbol xmlns="http://www.w3.org/2000/svg" id="pencil" viewBox="0 0 16 16">
  <path d="M15.502 1.94a.5.5 0 0 1 0 .706L14.459 3.69l-2-2L13.502.646a.5.5 0 0 1 .707 0l1.293 1.293zm-1.75 2.456-2-2L4.939 9.21a.5.5 0 0 0-.121.196l-.805 2.414a.25.25 0 0 0 .316.316l2.414-.805a.5.5 0 0 0 .196-.12l6.813-6.814z"/>
  <path fill-rule="evenodd" d="M1 13.5A1.5 1.5 0 0 0 2.5 15h11a1.5 1.5 0 0 0 1.5-1.5v-6a.5.5 0 0 0-1 0v6a.5.5 0 0 1-.5.5h-11a.5.5 0 0 1-.5-.5v-11a.5.5 0 0 1 .5-.5H9a.5.5 0 0 0 0-1H2.5A1.5 1.5 0 0 0 1 2.5z"/>
</symbol>
<symbol xmlns="http://www.w3.org/2000/svg" id="search" viewBox="0 0 16 16">
  <path d="M11.742 10.344a6.5 6.5 0 1 0-1.397 1.398h-.001q.044.06.098.115l3.85 3.85a1 1 0 0 0 1.415-1.414l-3.85-3.85a1 1 0 0 0-.115-.1zM12 6.5a5.5 5.5 0 1 1-11 0 5.5 5.5 0 0 1 11 0"/>
</symbol>
<symbol xmlns="http://www.w3.org/2000/svg" id="credit" viewBox="0 0 16 16">
  <path d="M11 5.5a.5.5 0 0 1 .5-.5h2a.5.5 0 0 1 .5.5v1a.5.5 0 0 1-.5.5h-2a.5.5 0 0 1-.5-.5z"/>
  <path d="M2 2a2 2 0 0 0-2 2v8a2 2 0 0 0 2 2h12a2 2 0 0 0 2-2V4a2 2 0 0 0-2-2zm13 2v5H1V4a1 1 0 0 1 1-1h12a1 1 0 0 1 1 1m-1 9H2a1 1 0 0 1-1-1v-1h14v1a1 1 0 0 1-1 1"/>
</symbol>
<symbol xmlns="http://www.w3.org/2000/svg" id="chevrondown" viewBox="0 0 16 16">
  <path fill-rule="evenodd" d="M1.646 6.646a.5.5 0 0 1 .708 0L8 12.293l5.646-5.647a.5.5 0 0 1 .708.708l-6 6a.5.5 0 0 1-.708 0l-6-6a.5.5 0 0 1 0-.708"/>
  <path fill-rule="evenodd" d="M1.646 2.646a.5.5 0 0 1 .708 0L8 8.293l5.646-5.647a.5.5 0 0 1 .708.708l-6 6a.5.5 0 0 1-.708 0l-6-6a.5.5 0 0 1 0-.708"/>
</symbol>
<symbol xmlns="http://www.w3.org/2000/svg" id="surface" viewBox="0 0 16 16">
  <path fill-rule="evenodd" d="M5.828 10.172a.5.5 0 0 0-.707 0l-4.096 4.096V11.5a.5.5 0 0 0-1 0v3.975a.5.5 0 0 0 .5.5H4.5a.5.5 0 0 0 0-1H1.732l4.096-4.096a.5.5 0 0 0 0-.707m4.344 0a.5.5 0 0 1 .707 0l4.096 4.096V11.5a.5.5 0 1 1 1 0v3.975a.5.5 0 0 1-.5.5H11.5a.5.5 0 0 1 0-1h2.768l-4.096-4.096a.5.5 0 0 1 0-.707m0-4.344a.5.5 0 0 0 .707 0l4.096-4.096V4.5a.5.5 0 1 0 1 0V.525a.5.5 0 0 0-.5-.5H11.5a.5.5 0 0 0 0 1h2.768l-4.096 4.096a.5.5 0 0 0 0 .707m-4.344 0a.5.5 0 0 1-.707 0L1.025 1.732V4.5a.5.5 0 0 1-1 0V.525a.5.5 0 0 1 .5-.5H4.5a.5.5 0 0 1 0 1H1.732l4.096 4.096a.5.5 0 0 1 0 .707"/>
</symbol>
<symbol xmlns="http://www.w3.org/2000/svg" id="parking" viewBox="0 0 16 16">
  <path d="M5.5 4.002h2.962C10.045 4.002 11 5.104 11 6.586c0 1.494-.967 2.578-2.55 2.578H6.784V12H5.5zm2.77 4.072c.893 0 1.419-.545 1.419-1.488s-.526-1.482-1.42-1.482H6.778v2.97z"/>
  <path d="M0 2a2 2 0 0 1 2-2h12a2 2 0 0 1 2 2v12a2 2 0 0 1-2 2H2a2 2 0 0 1-2-2zm15 0a1 1 0 0 0-1-1H2a1 1 0 0 0-1 1v12a1 1 0 0 0 1 1h12a1 1 0 0 0 1-1z"/>
</symbol>
<!-- kitchen-set icon by Free Icons (https://free-icons.github.io/free-icons/) -->
<symbol xmlns="http://www.w3.org/2000/svg" id="kitchen" viewBox="0 0 512 512">
  <path d="M 135.52941176470588 271.05882352941177 Q 168.47058823529412 271.05882352941177 195.76470588235293 255.05882352941177 L 195.76470588235293 255.05882352941177 L 195.76470588235293 255.05882352941177 Q 223.05882352941177 239.05882352941177 240 210.8235294117647 Q 256 182.58823529411765 256 150.58823529411765 Q 256 118.58823529411765 240 90.3529411764706 Q 223.05882352941177 62.11764705882353 195.76470588235293 46.11764705882353 Q 168.47058823529412 30.11764705882353 135.52941176470588 30.11764705882353 Q 102.58823529411765 30.11764705882353 75.29411764705883 46.11764705882353 Q 48 62.11764705882353 31.058823529411764 90.3529411764706 Q 15.058823529411764 118.58823529411765 15.058823529411764 150.58823529411765 Q 15.058823529411764 182.58823529411765 31.058823529411764 210.8235294117647 Q 48 239.05882352941177 75.29411764705883 255.05882352941177 Q 102.58823529411765 271.05882352941177 135.52941176470588 271.05882352941177 L 135.52941176470588 271.05882352941177 Z M 271.05882352941177 158.11764705882354 Q 266.3529411764706 212.7058823529412 228.7058823529412 248.47058823529412 L 228.7058823529412 248.47058823529412 L 228.7058823529412 248.47058823529412 Q 191.05882352941177 285.1764705882353 135.52941176470588 286.11764705882354 Q 78.11764705882354 284.2352941176471 39.529411764705884 246.58823529411765 Q 1.8823529411764706 208 0 150.58823529411765 Q 1.8823529411764706 93.17647058823529 39.529411764705884 54.588235294117645 Q 78.11764705882354 16.941176470588236 135.52941176470588 15.058823529411764 Q 191.05882352941177 16 228.7058823529412 52.705882352941174 Q 266.3529411764706 88.47058823529412 271.05882352941177 143.05882352941177 L 332.2352941176471 143.05882352941177 L 332.2352941176471 143.05882352941177 Q 338.8235294117647 122.3529411764706 361.4117647058824 120.47058823529412 L 481.88235294117646 120.47058823529412 L 481.88235294117646 120.47058823529412 Q 495.05882352941177 120.47058823529412 503.52941176470586 128.94117647058823 Q 512 137.41176470588235 512 150.58823529411765 Q 512 163.76470588235293 503.52941176470586 172.23529411764707 Q 495.05882352941177 180.7058823529412 481.88235294117646 180.7058823529412 L 361.4117647058824 180.7058823529412 L 361.4117647058824 180.7058823529412 Q 338.8235294117647 178.8235294117647 332.2352941176471 158.11764705882354 L 271.05882352941177 158.11764705882354 L 271.05882352941177 158.11764705882354 Z M 361.4117647058824 165.64705882352942 L 481.88235294117646 165.64705882352942 L 361.4117647058824 165.64705882352942 L 481.88235294117646 165.64705882352942 Q 496 164.7058823529412 496.94117647058823 150.58823529411765 Q 496 136.47058823529412 481.88235294117646 135.52941176470588 L 361.4117647058824 135.52941176470588 L 361.4117647058824 135.52941176470588 Q 347.29411764705884 136.47058823529412 346.3529411764706 150.58823529411765 Q 347.29411764705884 164.7058823529412 361.4117647058824 165.64705882352942 L 361.4117647058824 165.64705882352942 Z M 248.47058823529412 316.2352941176471 L 256 316.2352941176471 L 248.47058823529412 316.2352941176471 L 316.2352941176471 316.2352941176471 L 316.2352941176471 293.6470588235294 L 316.2352941176471 293.6470588235294 Q 318.11764705882354 272.94117647058823 338.8235294117647 271.05882352941177 L 414.11764705882354 271.05882352941177 L 414.11764705882354 271.05882352941177 Q 434.8235294117647 272.94117647058823 436.70588235294116 293.6470588235294 L 436.70588235294116 316.2352941176471 L 436.70588235294116 316.2352941176471 L 481.88235294117646 316.2352941176471 L 504.47058823529414 316.2352941176471 Q 511.05882352941177 317.1764705882353 512 323.7647058823529 Q 511.05882352941177 330.3529411764706 504.47058823529414 331.29411764705884 L 496.94117647058823 331.29411764705884 L 496.94117647058823 331.29411764705884 L 496.94117647058823 451.7647058823529 L 496.94117647058823 451.7647058823529 Q 496 470.5882352941176 483.7647058823529 483.7647058823529 Q 470.5882352941176 496 451.7647058823529 496.94117647058823 L 301.1764705882353 496.94117647058823 L 301.1764705882353 496.94117647058823 Q 282.3529411764706 496 269.1764705882353 483.7647058823529 Q 256.94117647058823 470.5882352941176 256 451.7647058823529 L 256 331.29411764705884 L 256 331.29411764705884 L 248.47058823529412 331.29411764705884 L 248.47058823529412 331.29411764705884 Q 241.88235294117646 330.3529411764706 240.94117647058823 323.7647058823529 Q 241.88235294117646 317.1764705882353 248.47058823529412 316.2352941176471 L 248.47058823529412 316.2352941176471 Z M 331.29411764705884 316.2352941176471 L 421.6470588235294 316.2352941176471 L 331.29411764705884 316.2352941176471 L 421.6470588235294 316.2352941176471 L 421.6470588235294 293.6470588235294 L 421.6470588235294 293.6470588235294 Q 420.70588235294116 287.05882352941177 414.11764705882354 286.11764705882354 L 338.8235294117647 286.11764705882354 L 338.8235294117647 286.11764705882354 Q 332.2352941176471 287.05882352941177 331.29411764705884 293.6470588235294 L 331.29411764705884 316.2352941176471 L 331.29411764705884 316.2352941176471 Z M 481.88235294117646 331.29411764705884 L 271.05882352941177 331.29411764705884 L 481.88235294117646 331.29411764705884 L 271.05882352941177 331.29411764705884 L 271.05882352941177 451.7647058823529 L 271.05882352941177 451.7647058823529 Q 271.05882352941177 464.94117647058823 279.52941176470586 473.4117647058824 Q 288 481.88235294117646 301.1764705882353 481.88235294117646 L 451.7647058823529 481.88235294117646 L 451.7647058823529 481.88235294117646 Q 464.94117647058823 481.88235294117646 473.4117647058824 473.4117647058824 Q 481.88235294117646 464.94117647058823 481.88235294117646 451.7647058823529 L 481.88235294117646 331.29411764705884 L 481.88235294117646 331.29411764705884 Z M 210.8235294117647 150.58823529411765 Q 209.88235294117646 108.23529411764706 173.1764705882353 85.6470588235294 Q 135.52941176470588 64.94117647058823 97.88235294117646 85.6470588235294 Q 61.1764705882353 108.23529411764706 60.23529411764706 150.58823529411765 Q 61.1764705882353 192.94117647058823 97.88235294117646 215.52941176470588 Q 135.52941176470588 236.23529411764707 173.1764705882353 215.52941176470588 Q 209.88235294117646 192.94117647058823 210.8235294117647 150.58823529411765 L 210.8235294117647 150.58823529411765 Z M 45.1764705882353 150.58823529411765 Q 45.1764705882353 126.11764705882354 57.411764705882355 105.41176470588235 L 57.411764705882355 105.41176470588235 L 57.411764705882355 105.41176470588235 Q 69.6470588235294 84.70588235294117 90.3529411764706 72.47058823529412 Q 112 60.23529411764706 135.52941176470588 60.23529411764706 Q 159.05882352941177 60.23529411764706 180.7058823529412 72.47058823529412 Q 201.41176470588235 84.70588235294117 213.64705882352942 105.41176470588235 Q 225.88235294117646 126.11764705882354 225.88235294117646 150.58823529411765 Q 225.88235294117646 175.05882352941177 213.64705882352942 195.76470588235293 Q 201.41176470588235 216.47058823529412 180.7058823529412 228.7058823529412 Q 159.05882352941177 240.94117647058823 135.52941176470588 240.94117647058823 Q 112 240.94117647058823 90.3529411764706 228.7058823529412 Q 69.6470588235294 216.47058823529412 57.411764705882355 195.76470588235293 Q 45.1764705882353 175.05882352941177 45.1764705882353 150.58823529411765 L 45.1764705882353 150.58823529411765 Z M 0 489.4117647058824 Q 0.9411764705882353 482.8235294117647 7.529411764705882 481.88235294117646 L 203.2941176470588 481.88235294117646 L 203.2941176470588 481.88235294117646 Q 209.88235294117646 482.8235294117647 210.8235294117647 489.4117647058824 Q 209.88235294117646 496 203.2941176470588 496.94117647058823 L 7.529411764705882 496.94117647058823 L 7.529411764705882 496.94117647058823 Q 0.9411764705882353 496 0 489.4117647058824 L 0 489.4117647058824 Z M 150.58823529411765 331.29411764705884 L 150.58823529411765 391.52941176470586 L 150.58823529411765 331.29411764705884 L 150.58823529411765 391.52941176470586 L 165.64705882352942 391.52941176470586 L 165.64705882352942 391.52941176470586 Q 178.8235294117647 391.52941176470586 187.2941176470588 383.05882352941177 Q 195.76470588235293 374.5882352941176 195.76470588235293 361.4117647058824 Q 195.76470588235293 348.2352941176471 187.2941176470588 339.7647058823529 Q 178.8235294117647 331.29411764705884 165.64705882352942 331.29411764705884 L 150.58823529411765 331.29411764705884 L 150.58823529411765 331.29411764705884 Z M 165.64705882352942 406.5882352941176 L 150.58823529411765 406.5882352941176 L 165.64705882352942 406.5882352941176 L 150.58823529411765 406.5882352941176 L 150.58823529411765 421.6470588235294 L 150.58823529411765 421.6470588235294 Q 150.58823529411765 434.8235294117647 142.11764705882354 443.29411764705884 Q 133.64705882352942 451.7647058823529 120.47058823529412 451.7647058823529 L 60.23529411764706 451.7647058823529 L 60.23529411764706 451.7647058823529 Q 47.05882352941177 451.7647058823529 38.588235294117645 443.29411764705884 Q 30.11764705882353 434.8235294117647 30.11764705882353 421.6470588235294 L 30.11764705882353 331.29411764705884 L 30.11764705882353 331.29411764705884 Q 31.058823529411764 317.1764705882353 45.1764705882353 316.2352941176471 L 135.52941176470588 316.2352941176471 L 165.64705882352942 316.2352941176471 Q 184.47058823529412 317.1764705882353 197.64705882352942 329.4117647058824 Q 209.88235294117646 342.5882352941176 210.8235294117647 361.4117647058824 Q 209.88235294117646 380.2352941176471 197.64705882352942 393.4117647058824 Q 184.47058823529412 405.6470588235294 165.64705882352942 406.5882352941176 L 165.64705882352942 406.5882352941176 Z M 45.1764705882353 331.29411764705884 L 45.1764705882353 421.6470588235294 L 45.1764705882353 331.29411764705884 L 45.1764705882353 421.6470588235294 Q 46.11764705882353 435.7647058823529 60.23529411764706 436.70588235294116 L 120.47058823529412 436.70588235294116 L 120.47058823529412 436.70588235294116 Q 134.58823529411765 435.7647058823529 135.52941176470588 421.6470588235294 L 135.52941176470588 406.5882352941176 L 135.52941176470588 406.5882352941176 L 135.52941176470588 391.52941176470586 L 135.52941176470588 391.52941176470586 L 135.52941176470588 331.29411764705884 L 135.52941176470588 331.29411764705884 L 45.1764705882353 331.29411764705884 L 45.1764705882353 331.29411764705884 Z" />
</symbol>
<!-- refrigerator icon by Free Icons (https://free-icons.github.io/free-icons/) -->
<symbol xmlns="http://www.w3.org/2000/svg" id="fridge" viewBox="0 0 512 512">
  <path d="M 352 32 Q 379 33 397 51 L 397 51 L 397 51 Q 415 69 416 96 L 416 160 L 416 160 L 352 160 L 352 160 L 352 112 L 352 112 Q 351 97 336 96 Q 321 97 320 112 L 320 160 L 320 160 L 96 160 L 96 160 L 96 96 L 96 96 Q 97 69 115 51 Q 133 33 160 32 L 352 32 L 352 32 Z M 320 192 L 320 368 L 320 192 L 320 368 Q 321 383 336 384 Q 351 383 352 368 L 352 192 L 352 192 L 416 192 L 416 192 L 416 448 L 416 448 Q 416 462 407 471 Q 398 480 384 480 L 128 480 L 128 480 Q 114 480 105 471 Q 96 462 96 448 L 96 192 L 96 192 L 320 192 L 320 192 Z M 160 0 Q 119 1 92 28 L 92 28 L 92 28 Q 65 55 64 96 L 64 448 L 64 448 Q 65 475 83 493 Q 101 511 128 512 L 384 512 L 384 512 Q 411 511 429 493 Q 447 475 448 448 L 448 96 L 448 96 Q 447 55 420 28 Q 393 1 352 0 L 160 0 L 160 0 Z" />
</symbol>
<!-- tv icon by Free Icons (https://free-icons.github.io/free-icons/) -->
<symbol xmlns="http://www.w3.org/2000/svg" id="tv" viewBox="0 0 512 512">
  <path d="M 51.2 89.6 Q 39.2 90.4 38.4 102.4 L 38.4 332.8 L 38.4 332.8 Q 39.2 344.8 51.2 345.6 L 460.8 345.6 L 460.8 345.6 Q 472.8 344.8 473.6 332.8 L 473.6 102.4 L 473.6 102.4 Q 472.8 90.4 460.8 89.6 L 51.2 89.6 L 51.2 89.6 Z M 0 102.4 Q 0.8 80.8 15.2 66.4 L 15.2 66.4 L 15.2 66.4 Q 29.6 52 51.2 51.2 L 460.8 51.2 L 460.8 51.2 Q 482.4 52 496.8 66.4 Q 511.2 80.8 512 102.4 L 512 332.8 L 512 332.8 Q 511.2 354.4 496.8 368.8 Q 482.4 383.2 460.8 384 L 51.2 384 L 51.2 384 Q 29.6 383.2 15.2 368.8 Q 0.8 354.4 0 332.8 L 0 102.4 L 0 102.4 Z M 96 422.4 L 416 422.4 L 96 422.4 L 416 422.4 Q 433.6 424 435.2 441.6 Q 433.6 459.2 416 460.8 L 96 460.8 L 96 460.8 Q 78.4 459.2 76.8 441.6 Q 78.4 424 96 422.4 L 96 422.4 Z" />
</symbol>
<!-- wifi icon by Free Icons (https://free-icons.github.io/free-icons/) -->
<symbol xmlns="http://www.w3.org/2000/svg" id="wifi" viewBox="0 0 512 512">
  <path d="M 36.79510703363914 198.06727828746176 Q 80.63608562691131 158.92354740061162 137.00305810397555 137.00305810397555 L 137.00305810397555 137.00305810397555 L 137.00305810397555 137.00305810397555 Q 192.58715596330276 115.08256880733946 256 115.08256880733946 Q 319.41284403669727 115.08256880733946 374.99694189602445 137.00305810397555 Q 431.3639143730887 158.92354740061162 475.20489296636083 198.06727828746176 Q 489.2966360856269 208.2446483180428 501.822629969419 196.50152905198777 Q 512 182.40978593272172 500.25688073394497 169.88379204892968 Q 450.9357798165138 126.0428134556575 389.08868501529054 101.7737003058104 Q 326.45871559633025 77.5045871559633 256 77.5045871559633 Q 185.54128440366972 77.5045871559633 122.91131498470948 101.7737003058104 Q 61.06422018348624 126.0428134556575 11.743119266055047 169.88379204892968 Q 0 182.40978593272172 10.17737003058104 196.50152905198777 Q 22.70336391437309 208.2446483180428 36.79510703363914 198.06727828746176 L 36.79510703363914 198.06727828746176 Z M 256 252.868501529052 Q 333.5045871559633 254.43425076452598 387.5229357798165 303.75535168195717 Q 400.83180428134557 314.7155963302752 414.1406727828746 302.9724770642202 Q 424.31804281345563 288.8807339449541 412.5749235474006 276.3547400611621 Q 381.2599388379205 247.38837920489297 341.3333333333333 231.7308868501529 Q 301.40672782874617 215.29051987767585 256 215.29051987767585 Q 210.59327217125383 215.29051987767585 170.66666666666666 231.7308868501529 Q 130.7400611620795 247.38837920489297 99.42507645259938 276.3547400611621 Q 87.68195718654434 288.8807339449541 97.85932721712538 302.9724770642202 Q 111.16819571865443 314.7155963302752 124.4770642201835 303.75535168195717 Q 178.4954128440367 254.43425076452598 256 252.868501529052 L 256 252.868501529052 Z M 299.84097859327215 384.3914373088685 Q 299.0581039755352 359.3394495412844 277.9204892966361 346.81345565749234 Q 256 334.28746177370033 234.07951070336392 346.81345565749234 Q 212.94189602446482 359.3394495412844 212.15902140672782 384.3914373088685 Q 212.94189602446482 409.4434250764526 234.07951070336392 421.96941896024464 Q 256 434.4954128440367 277.9204892966361 421.96941896024464 Q 299.0581039755352 409.4434250764526 299.84097859327215 384.3914373088685 L 299.84097859327215 384.3914373088685 Z" />
</symbol>
<!-- shower icon by Free Icons (https://free-icons.github.io/free-icons/) -->
<symbol xmlns="http://www.w3.org/2000/svg" id="shower" viewBox="0 0 512 512">
  <path d="M 32 116 Q 33 94 47 79 L 47 79 L 47 79 Q 62 65 84 64 Q 105 64 121 79 L 149 107 L 149 107 Q 149 108 150 109 Q 126 143 128 183 Q 131 224 161 255 L 166 260 L 166 260 L 149 277 L 149 277 Q 139 288 149 299 Q 160 309 171 299 L 363 107 L 363 107 Q 373 96 363 85 Q 352 75 341 85 L 324 101 L 324 101 L 319 97 L 319 97 Q 288 67 248 64 Q 207 62 173 86 Q 172 85 171 85 L 143 57 L 143 57 Q 118 32 84 32 Q 48 33 25 57 Q 1 80 0 116 L 0 464 L 0 464 Q 1 479 16 480 Q 31 479 32 464 L 32 116 L 32 116 Z M 183 119 Q 208 96 240 96 L 240 96 L 240 96 Q 272 96 297 119 L 301 124 L 301 124 L 188 237 L 188 237 L 183 233 L 183 233 Q 160 208 160 176 Q 160 144 183 120 L 183 119 Z M 416 200 Q 414 178 392 176 Q 370 178 368 200 Q 370 222 392 224 Q 414 222 416 200 L 416 200 Z M 328 288 Q 350 286 352 264 Q 350 242 328 240 Q 306 242 304 264 Q 306 286 328 288 L 328 288 Z M 288 328 Q 286 306 264 304 Q 242 306 240 328 Q 242 350 264 352 Q 286 350 288 328 L 288 328 Z M 360 384 Q 382 382 384 360 Q 382 338 360 336 Q 338 338 336 360 Q 338 382 360 384 L 360 384 Z M 296 448 Q 318 446 320 424 Q 318 402 296 400 Q 274 402 272 424 Q 274 446 296 448 L 296 448 Z M 424 320 Q 446 318 448 296 Q 446 274 424 272 Q 402 274 400 296 Q 402 318 424 320 L 424 320 Z M 512 232 Q 510 210 488 208 Q 466 210 464 232 Q 466 254 488 256 Q 510 254 512 232 L 512 232 Z" />
</symbol>


</svg>