<svg >
<symbol xmlns="http://www.w3.org/2000/svg" xmlns:xlink="http://www.w3.org/1999/xlink" id="logout" fill="currentColor"  viewBox="0 0 16 16">
  <path fill-rule="evenodd" d="M10 12.5a.5.5 0 0 1-.5.5h-8a.5.5 0 0 1-.5-.5v-9a.5.5 0 0 1 .5-.5h8a.5.5 0 0 1 .5.5v2a.5.5 0 0 0 1 0v-2A1.5 1.5 0 0 0 9.5 2h-8A1.5 1.5 0 0 0 0 3.5v9A1.5 1.5 0 0 0 1.5 14h8a1.5 1.5 0 0 0 1.5-1.5v-2a.5.5 0 0 0-1 0z"/>
  <path fill-rule="evenodd" d="M15.854 8.354a.5.5 0 0 0 0-.708l-3-3a.5.5 0 0 0-.708.708L14.293 7.5H5.5a.5.5 0 0 0 0 1h8.793l-2.147 2.146a.5.5 0 0 0 .708.708z"/>
</symbol>
<symbol xmlns="http://www.w3.org/2000/svg" xmlns:xlink="http://www.w3.org/1999/xlink" fill="currentColor" id="calendar" viewBox="0 0 16 16">
  <path d="M11 6.5a.5.5 0 0 1 .5-.5h1a.5.5 0 0 1 .5.5v1a.5.5 0 0 1-.5.5h-1a.5.5 0 0 1-.5-.5zm-3 0a.5.5 0 0 1 .5-.5h1a.5.5 0 0 1 .5.5v1a.5.5 0 0 1-.5.5h-1a.5.5 0 0 1-.5-.5zm-5 3a.5.5 0 0 1 .5-.5h1a.5.5 0 0 1 .5.5v1a.5.5 0 0 1-.5.5h-1a.5.5 0 0 1-.5-.5zm3 0a.5.5 0 0 1 .5-.5h1a.5.5 0 0 1 .5.5v1a.5.5 0 0 1-.5.5h-1a.5.5 0 0 1-.5-.5z"/>
  <path d="M3.5 0a.5.5 0 0 1 .5.5V1h8V.5a.5.5 0 0 1 1 0V1h1a2 2 0 0 1 2 2v11a2 2 0 0 1-2 2H2a2 2 0 0 1-2-2V3a2 2 0 0 1 2-2h1V.5a.5.5 0 0 1 .5-.5M1 4v10a1 1 0 0 0 1 1h12a1 1 0 0 0 1-1V4z"/>
</symbol>
<symbol xmlns="http://www.w3.org/2000/svg" xmlns:xlink="http://www.w3.org/1999/xlink" fill="currentColor" id="plus" viewBox="0 0 16 16">
  <path d="M14 1a1 1 0 0 1 1 1v12a1 1 0 0 1-1 1H2a1 1 0 0 1-1-1V2a1 1 0 0 1 1-1zM2 0a2 2 0 0 0-2 2v12a2 2 0 0 0 2 2h12a2 2 0 0 0 2-2V2a2 2 0 0 0-2-2z"/>
  <path d="M8 4a.5.5 0 0 1 .5.5v3h3a.5.5 0 0 1 0 1h-3v3a.5.5 0 0 1-1 0v-3h-3a.5.5 0 0 1 0-1h3v-3A.5.5 0 0 1 8 4"/>
</symbol>
<symbol xmlns="http://www.w3.org/2000/svg" xmlns:xlink="http://www.w3.org/1999/xlink" id="list" fill="currentColor" viewBox="0 0 16 16">
  <path d="M14.5 3a.5.5 0 0 1 .5.5v9a.5.5 0 0 1-.5.5h-13a.5.5 0 0 1-.5-.5v-9a.5.5 0 0 1 .5-.5zm-13-1A1.5 1.5 0 0 0 0 3.5v9A1.5 1.5 0 0 0 1.5 14h13a1.5 1.5 0 0 0 1.5-1.5v-9A1.5 1.5 0 0 0 14.5 2z"/>
  <path d="M5 8a.5.5 0 0 1 .5-.5h7a.5.5 0 0 1 0 1h-7A.5.5 0 0 1 5 8m0-2.5a.5.5 0 0 1 .5-.5h7a.5.5 0 0 1 0 1h-7a.5.5 0 0 1-.5-.5m0 5a.5.5 0 0 1 .5-.5h7a.5.5 0 0 1 0 1h-7a.5.5 0 0 1-.5-.5m-1-5a.5.5 0 1 1-1 0 .5.5 0 0 1 1 0M4 8a.5.5 0 1 1-1 0 .5.5 0 0 1 1 0m0 2.5a.5.5 0 1 1-1 0 .5.5 0 0 1 1 0"/>
</symbol>
<symbol xmlns="http://www.w3.org/2000/svg" xmlns:xlink="http://www.w3.org/1999/xlink" id="check" viewBox="0 0 16 16">
  <path d="M3 14.5A1.5 1.5 0 0 1 1.5 13V3A1.5 1.5 0 0 1 3 1.5h8a.5.5 0 0 1 0 1H3a.5.5 0 0 0-.5.5v10a.5.5 0 0 0 .5.5h10a.5.5 0 0 0 .5-.5V8a.5.5 0 0 1 1 0v5a1.5 1.5 0 0 1-1.5 1.5z"/>
  <path d="m8.354 10.354 7-7a.5.5 0 0 0-.708-.708L8 9.293 5.354 6.646a.5.5 0 1 0-.708.708l3 3a.5.5 0 0 0 .708 0"/>
</symbol>
<symbol xmlns="http://www.w3.org/2000/svg" xmlns:xlink="http://www.w3.org/1999/xlink" id="trash" viewBox="0 0 16 16">
  <path d="M11 1.5v1h3.5a.5.5 0 0 1 0 1h-.538l-.853 10.66A2 2 0 0 1 11.115 16h-6.23a2 2 0 0 1-1.994-1.84L2.038 3.5H1.5a.5.5 0 0 1 0-1H5v-1A1.5 1.5 0 0 1 6.5 0h3A1.5 1.5 0 0 1 11 1.5m-5 0v1h4v-1a.5.5 0 0 0-.5-.5h-3a.5.5 0 0 0-.5.5M4.5 5.029l.5 8.5a.5.5 0 1 0 .998-.06l-.5-8.5a.5.5 0 1 0-.998.06m6.53-.528a.5.5 0 0 0-.528.47l-.5 8.5a.5.5 0 0 0 .998.058l.5-8.5a.5.5 0 0 0-.47-.528M8 4.5a.5.5 0 0 0-.5.5v8.5a.5.5 0 0 0 1 0V5a.5.5 0 0 0-.5-.5"/>
</symbol>
<symbol xmlns="http://www.w3.org/2000/svg" xmlns:xlink="http://www.w3.org/1999/xlink" id="pencil" viewBox="0 0 16 16">
  <path d="M15.502 1.94a.5.5 0 0 1 0 .706L14.459 3.69l-2-2L13.502.646a.5.5 0 0 1 .707 0l1.293 1.293zm-1.75 2.456-2-2L4.939 9.21a.5.5 0 0 0-.121.196l-.805 2.414a.25.25 0 0 0 .316.316l2.414-.805a.5.5 0 0 0 .196-.12l6.813-6.814z"/>
  <path fill-rule="evenodd" d="M1 13.5A1.5 1.5 0 0 0 2.5 15h11a1.5 1.5 0 0 0 1.5-1.5v-6a.5.5 0 0 0-1 0v6a.5.5 0 0 1-.5.5h-11a.5.5 0 0 1-.5-.5v-11a.5.5 0 0 1 .5-.5H9a.5.5 0 0 0 0-1H2.5A1.5 1.5 0 0 0 1 2.5z"/>
</symbol>
<symbol xmlns="http://www.w3.org/2000/svg" xmlns:xlink="http://www.w3.org/1999/xlink" id="search" viewBox="0 0 16 16">
  <path d="M11.742 10.344a6.5 6.5 0 1 0-1.397 1.398h-.001q.044.06.098.115l3.85 3.85a1 1 0 0 0 1.415-1.414l-3.85-3.85a1 1 0 0 0-.115-.1zM12 6.5a5.5 5.5 0 1 1-11 0 5.5 5.5 0 0 1 11 0"/>
</symbol>
<symbol xmlns="http://www.w3.org/2000/svg" id="credit" viewBox="0 0 16 16">
  <path d="M11 5.5a.5.5 0 0 1 .5-.5h2a.5.5 0 0 1 .5.5v1a.5.5 0 0 1-.5.5h-2a.5.5 0 0 1-.5-.5z"/>
  <path d="M2 2a2 2 0 0 0-2 2v8a2 2 0 0 0 2 2h12a2 2 0 0 0 2-2V4a2 2 0 0 0-2-2zm13 2v5H1V4a1 1 0 0 1 1-1h12a1 1 0 0 1 1 1m-1 9H2a1 1 0 0 1-1-1v-1h14v1a1 1 0 0 1-1 1"/>
</symbol>
<symbol xmlns="http://www.w3.org/2000/svg" xmlns:xlink="http://www.w3.org/1999/xlink" id="chevrondown" viewBox="0 0 16 16">
  <path fill-rule="evenodd" d="M1.646 6.646a.5.5 0 0 1 .708 0L8 12.293l5.646-5.647a.5.5 0 0 1 .708.708l-6 6a.5.5 0 0 1-.708 0l-6-6a.5.5 0 0 1 0-.708"/>
  <path fill-rule="evenodd" d="M1.646 2.646a.5.5 0 0 1 .708 0L8 8.293l5.646-5.647a.5.5 0 0 1 .708.708l-6 6a.5.5 0 0 1-.708 0l-6-6a.5.5 0 0 1 0-.708"/>
</symbol>
<symbol xmlns="http://www.w3.org/2000/svg" xmlns:xlink="http://www.w3.org/1999/xlink" id="surface" viewBox="0 0 16 16">
  <path fill-rule="evenodd" d="M5.828 10.172a.5.5 0 0 0-.707 0l-4.096 4.096V11.5a.5.5 0 0 0-1 0v3.975a.5.5 0 0 0 .5.5H4.5a.5.5 0 0 0 0-1H1.732l4.096-4.096a.5.5 0 0 0 0-.707m4.344 0a.5.5 0 0 1 .707 0l4.096 4.096V11.5a.5.5 0 1 1 1 0v3.975a.5.5 0 0 1-.5.5H11.5a.5.5 0 0 1 0-1h2.768l-4.096-4.096a.5.5 0 0 1 0-.707m0-4.344a.5.5 0 0 0 .707 0l4.096-4.096V4.5a.5.5 0 1 0 1 0V.525a.5.5 0 0 0-.5-.5H11.5a.5.5 0 0 0 0 1h2.768l-4.096 4.096a.5.5 0 0 0 0 .707m-4.344 0a.5.5 0 0 1-.707 0L1.025 1.732V4.5a.5.5 0 0 1-1 0V.525a.5.5 0 0 1 .5-.5H4.5a.5.5 0 0 1 0 1H1.732l4.096 4.096a.5.5 0 0 1 0 .707"/>
</symbol>
<symbol xmlns="http://www.w3.org/2000/svg" xmlns:xlink="http://www.w3.org/1999/xlink" id="parking" viewBox="0 0 16 16">
  <path d="M5.5 4.002h2.962C10.045 4.002 11 5.104 11 6.586c0 1.494-.967 2.578-2.55 2.578H6.784V12H5.5zm2.77 4.072c.893 0 1.419-.545 1.419-1.488s-.526-1.482-1.42-1.482H6.778v2.97z"/>
  <path d="M0 2a2 2 0 0 1 2-2h12a2 2 0 0 1 2 2v12a2 2 0 0 1-2 2H2a2 2 0 0 1-2-2zm15 0a1 1 0 0 0-1-1H2a1 1 0 0 0-1 1v12a1 1 0 0 0 1 1h12a1 1 0 0 0 1-1z"/>
</symbol>
<!-- kitchen-set icon by Free Icons (https://free-icons.github.io/free-icons/) -->
<symbol xmlns="http://www.w3.org/2000/svg" xmlns:xlink="http://www.w3.org/1999/xlink" id="kitchen" viewBox="0 0 512 512">
  <path d="M 135.52941176470588 271.05882352941177 Q 168.47058823529412 271.05882352941177 195.76470588235293 255.05882352941177 L 195.76470588235293 255.05882352941177 L 195.76470588235293 255.05882352941177 Q 223.05882352941177 239.05882352941177 240 210.8235294117647 Q 256 182.58823529411765 256 150.58823529411765 Q 256 118.58823529411765 240 90.3529411764706 Q 223.05882352941177 62.11764705882353 195.76470588235293 46.11764705882353 Q 168.47058823529412 30.11764705882353 135.52941176470588 30.11764705882353 Q 102.58823529411765 30.11764705882353 75.29411764705883 46.11764705882353 Q 48 62.11764705882353 31.058823529411764 90.3529411764706 Q 15.058823529411764 118.58823529411765 15.058823529411764 150.58823529411765 Q 15.058823529411764 182.58823529411765 31.058823529411764 210.8235294117647 Q 48 239.05882352941177 75.29411764705883 255.05882352941177 Q 102.58823529411765 271.05882352941177 135.52941176470588 271.05882352941177 L 135.52941176470588 271.05882352941177 Z M 271.05882352941177 158.11764705882354 Q 266.3529411764706 212.7058823529412 228.7058823529412 248.47058823529412 L 228.7058823529412 248.47058823529412 L 228.7058823529412 248.47058823529412 Q 191.05882352941177 285.1764705882353 135.52941176470588 286.11764705882354 Q 78.11764705882354 284.2352941176471 39.529411764705884 246.58823529411765 Q 1.8823529411764706 208 0 150.58823529411765 Q 1.8823529411764706 93.17647058823529 39.529411764705884 54.588235294117645 Q 78.11764705882354 16.941176470588236 135.52941176470588 15.058823529411764 Q 191.05882352941177 16 228.7058823529412 52.705882352941174 Q 266.3529411764706 88.47058823529412 271.05882352941177 143.05882352941177 L 332.2352941176471 143.05882352941177 L 332.2352941176471 143.05882352941177 Q 338.8235294117647 122.3529411764706 361.4117647058824 120.47058823529412 L 481.88235294117646 120.47058823529412 L 481.88235294117646 120.47058823529412 Q 495.05882352941177 120.47058823529412 503.52941176470586 128.94117647058823 Q 512 137.41176470588235 512 150.58823529411765 Q 512 163.76470588235293 503.52941176470586 172.23529411764707 Q 495.05882352941177 180.7058823529412 481.88235294117646 180.7058823529412 L 361.4117647058824 180.7058823529412 L 361.4117647058824 180.7058823529412 Q 338.8235294117647 178.8235294117647 332.2352941176471 158.11764705882354 L 271.05882352941177 158.11764705882354 L 271.05882352941177 158.11764705882354 Z M 361.4117647058824 165.64705882352942 L 481.88235294117646 165.64705882352942 L 361.4117647058824 165.64705882352942 L 481.88235294117646 165.64705882352942 Q 496 164.7058823529412 496.94117647058823 150.58823529411765 Q 496 136.47058823529412 481.88235294117646 135.52941176470588 L 361.4117647058824 135.52941176470588 L 361.4117647058824 135.52941176470588 Q 347.29411764705884 136.47058823529412 346.3529411764706 150.58823529411765 Q 347.29411764705884 164.7058823529412 361.4117647058824 165.64705882352942 L 361.4117647058824 165.64705882352942 Z M 248.47058823529412 316.2352941176471 L 256 316.2352941176471 L 248.47058823529412 316.2352941176471 L 316.2352941176471 316.2352941176471 L 316.2352941176471 293.6470588235294 L 316.2352941176471 293.6470588235294 Q 318.11764705882354 272.94117647058823 338.8235294117647 271.05882352941177 L 414.11764705882354 271.05882352941177 L 414.11764705882354 271.05882352941177 Q 434.8235294117647 272.94117647058823 436.70588235294116 293.6470588235294 L 436.70588235294116 316.2352941176471 L 436.70588235294116 316.2352941176471 L 481.88235294117646 316.2352941176471 L 504.47058823529414 316.2352941176471 Q 511.05882352941177 317.1764705882353 512 323.7647058823529 Q 511.05882352941177 330.3529411764706 504.47058823529414 331.29411764705884 L 496.94117647058823 331.29411764705884 L 496.94117647058823 331.29411764705884 L 496.94117647058823 451.7647058823529 L 496.94117647058823 451.7647058823529 Q 496 470.5882352941176 483.7647058823529 483.7647058823529 Q 470.5882352941176 496 451.7647058823529 496.94117647058823 L 301.1764705882353 496.94117647058823 L 301.1764705882353 496.94117647058823 Q 282.3529411764706 496 269.1764705882353 483.7647058823529 Q 256.94117647058823 470.5882352941176 256 451.7647058823529 L 256 331.29411764705884 L 256 331.29411764705884 L 248.47058823529412 331.29411764705884 L 248.47058823529412 331.29411764705884 Q 241.88235294117646 330.3529411764706 240.94117647058823 323.7647058823529 Q 241.88235294117646 317.1764705882353 248.47058823529412 316.2352941176471 L 248.47058823529412 316.2352941176471 Z M 331.29411764705884 316.2352941176471 L 421.6470588235294 316.2352941176471 L 331.29411764705884 316.2352941176471 L 421.6470588235294 316.2352941176471 L 421.6470588235294 293.6470588235294 L 421.6470588235294 293.6470588235294 Q 420.70588235294116 287.05882352941177 414.11764705882354 286.11764705882354 L 338.8235294117647 286.11764705882354 L 338.8235294117647 286.11764705882354 Q 332.2352941176471 287.05882352941177 331.29411764705884 293.6470588235294 L 331.29411764705884 316.2352941176471 L 331.29411764705884 316.2352941176471 Z M 481.88235294117646 331.29411764705884 L 271.05882352941177 331.29411764705884 L 481.88235294117646 331.29411764705884 L 271.05882352941177 331.29411764705884 L 271.05882352941177 451.7647058823529 L 271.05882352941177 451.7647058823529 Q 271.05882352941177 464.94117647058823 279.52941176470586 473.4117647058824 Q 288 481.88235294117646 301.1764705882353 481.88235294117646 L 451.7647058823529 481.88235294117646 L 451.7647058823529 481.88235294117646 Q 464.94117647058823 481.88235294117646 473.4117647058824 473.4117647058824 Q 481.88235294117646 464.94117647058823 481.88235294117646 451.7647058823529 L 481.88235294117646 331.29411764705884 L 481.88235294117646 331.29411764705884 Z M 210.8235294117647 150.58823529411765 Q 209.88235294117646 108.23529411764706 173.1764705882353 85.6470588235294 Q 135.52941176470588 64.94117647058823 97.88235294117646 85.6470588235294 Q 61.1764705882353 108.23529411764706 60.23529411764706 150.58823529411765 Q 61.1764705882353 192.94117647058823 97.88235294117646 215.52941176470588 Q 135.52941176470588 236.23529411764707 173.1764705882353 215.52941176470588 Q 209.88235294117646 192.94117647058823 210.8235294117647 150.58823529411765 L 210.8235294117647 150.58823529411765 Z M 45.1764705882353 150.58823529411765 Q 45.1764705882353 126.11764705882354 57.411764705882355 105.41176470588235 L 57.411764705882355 105.41176470588235 L 57.411764705882355 105.41176470588235 Q 69.6470588235294 84.70588235294117 90.3529411764706 72.47058823529412 Q 112 60.23529411764706 135.52941176470588 60.23529411764706 Q 159.05882352941177 60.23529411764706 180.7058823529412 72.47058823529412 Q 201.41176470588235 84.70588235294117 213.64705882352942 105.41176470588235 Q 225.88235294117646 126.11764705882354 225.88235294117646 150.58823529411765 Q 225.88235294117646 175.05882352941177 213.64705882352942 195.76470588235293 Q 201.41176470588235 216.47058823529412 180.7058823529412 228.7058823529412 Q 159.05882352941177 240.94117647058823 135.52941176470588 240.94117647058823 Q 112 240.94117647058823 90.3529411764706 228.7058823529412 Q 69.6470588235294 216.47058823529412 57.411764705882355 195.76470588235293 Q 45.1764705882353 175.05882352941177 45.1764705882353 150.58823529411765 L 45.1764705882353 150.58823529411765 Z M 0 489.4117647058824 Q 0.9411764705882353 482.8235294117647 7.529411764705882 481.88235294117646 L 203.2941176470588 481.88235294117646 L 203.2941176470588 481.88235294117646 Q 209.88235294117646 482.8235294117647 210.8235294117647 489.4117647058824 Q 209.88235294117646 496 203.2941176470588 496.94117647058823 L 7.529411764705882 496.94117647058823 L 7.529411764705882 496.94117647058823 Q 0.9411764705882353 496 0 489.4117647058824 L 0 489.4117647058824 Z M 150.58823529411765 331.29411764705884 L 150.58823529411765 391.52941176470586 L 150.58823529411765 331.29411764705884 L 150.58823529411765 391.52941176470586 L 165.64705882352942 391.52941176470586 L 165.64705882352942 391.52941176470586 Q 178.8235294117647 391.52941176470586 187.2941176470588 383.05882352941177 Q 195.76470588235293 374.5882352941176 195.76470588235293 361.4117647058824 Q 195.76470588235293 348.2352941176471 187.2941176470588 339.7647058823529 Q 178.8235294117647 331.29411764705884 165.64705882352942 331.29411764705884 L 150.58823529411765 331.29411764705884 L 150.58823529411765 331.29411764705884 Z M 165.64705882352942 406.5882352941176 L 150.58823529411765 406.5882352941176 L 165.64705882352942 406.5882352941176 L 150.58823529411765 406.5882352941176 L 150.58823529411765 421.6470588235294 L 150.58823529411765 421.6470588235294 Q 150.58823529411765 434.8235294117647 142.11764705882354 443.29411764705884 Q 133.64705882352942 451.7647058823529 120.47058823529412 451.7647058823529 L 60.23529411764706 451.7647058823529 L 60.23529411764706 451.7647058823529 Q 47.05882352941177 451.7647058823529 38.588235294117645 443.29411764705884 Q 30.11764705882353 434.8235294117647 30.11764705882353 421.6470588235294 L 30.11764705882353 331.29411764705884 L 30.11764705882353 331.29411764705884 Q 31.058823529411764 317.1764705882353 45.1764705882353 316.2352941176471 L 135.52941176470588 316.2352941176471 L 165.64705882352942 316.2352941176471 Q 184.47058823529412 317.1764705882353 197.64705882352942 329.4117647058824 Q 209.88235294117646 342.5882352941176 210.8235294117647 361.4117647058824 Q 209.88235294117646 380.2352941176471 197.64705882352942 393.4117647058824 Q 184.47058823529412 405.6470588235294 165.64705882352942 406.5882352941176 L 165.64705882352942 406.5882352941176 Z M 45.1764705882353 331.29411764705884 L 45.1764705882353 421.6470588235294 L 45.1764705882353 331.29411764705884 L 45.1764705882353 421.6470588235294 Q 46.11764705882353 435.7647058823529 60.23529411764706 436.70588235294116 L 120.47058823529412 436.70588235294116 L 120.47058823529412 436.70588235294116 Q 134.58823529411765 435.7647058823529 135.52941176470588 421.6470588235294 L 135.52941176470588 406.5882352941176 L 135.52941176470588 406.5882352941176 L 135.52941176470588 391.52941176470586 L 135.52941176470588 391.52941176470586 L 135.52941176470588 331.29411764705884 L 135.52941176470588 331.29411764705884 L 45.1764705882353 331.29411764705884 L 45.1764705882353 331.29411764705884 Z" />
</symbol>
<!-- refrigerator icon by Free Icons (https://free-icons.github.io/free-icons/) -->
<symbol xmlns="http://www.w3.org/2000/svg" xmlns:xlink="http://www.w3.org/1999/xlink" id="fridge" viewBox="0 0 512 512">
  <path d="M 352 32 Q 379 33 397 51 L 397 51 L 397 51 Q 415 69 416 96 L 416 160 L 416 160 L 352 160 L 352 160 L 352 112 L 352 112 Q 351 97 336 96 Q 321 97 320 112 L 320 160 L 320 160 L 96 160 L 96 160 L 96 96 L 96 96 Q 97 69 115 51 Q 133 33 160 32 L 352 32 L 352 32 Z M 320 192 L 320 368 L 320 192 L 320 368 Q 321 383 336 384 Q 351 383 352 368 L 352 192 L 352 192 L 416 192 L 416 192 L 416 448 L 416 448 Q 416 462 407 471 Q 398 480 384 480 L 128 480 L 128 480 Q 114 480 105 471 Q 96 462 96 448 L 96 192 L 96 192 L 320 192 L 320 192 Z M 160 0 Q 119 1 92 28 L 92 28 L 92 28 Q 65 55 64 96 L 64 448 L 64 448 Q 65 475 83 493 Q 101 511 128 512 L 384 512 L 384 512 Q 411 511 429 493 Q 447 475 448 448 L 448 96 L 448 96 Q 447 55 420 28 Q 393 1 352 0 L 160 0 L 160 0 Z" />
</symbol>
<!-- tv icon by Free Icons (https://free-icons.github.io/free-icons/) -->
<symbol xmlns="http://www.w3.org/2000/svg" xmlns:xlink="http://www.w3.org/1999/xlink" id="tv" viewBox="0 0 512 512">
  <path d="M 51.2 89.6 Q 39.2 90.4 38.4 102.4 L 38.4 332.8 L 38.4 332.8 Q 39.2 344.8 51.2 345.6 L 460.8 345.6 L 460.8 345.6 Q 472.8 344.8 473.6 332.8 L 473.6 102.4 L 473.6 102.4 Q 472.8 90.4 460.8 89.6 L 51.2 89.6 L 51.2 89.6 Z M 0 102.4 Q 0.8 80.8 15.2 66.4 L 15.2 66.4 L 15.2 66.4 Q 29.6 52 51.2 51.2 L 460.8 51.2 L 460.8 51.2 Q 482.4 52 496.8 66.4 Q 511.2 80.8 512 102.4 L 512 332.8 L 512 332.8 Q 511.2 354.4 496.8 368.8 Q 482.4 383.2 460.8 384 L 51.2 384 L 51.2 384 Q 29.6 383.2 15.2 368.8 Q 0.8 354.4 0 332.8 L 0 102.4 L 0 102.4 Z M 96 422.4 L 416 422.4 L 96 422.4 L 416 422.4 Q 433.6 424 435.2 441.6 Q 433.6 459.2 416 460.8 L 96 460.8 L 96 460.8 Q 78.4 459.2 76.8 441.6 Q 78.4 424 96 422.4 L 96 422.4 Z" />
</symbol>
<!-- wifi icon by Free Icons (https://free-icons.github.io/free-icons/) -->
<symbol xmlns="http://www.w3.org/2000/svg" xmlns:xlink="http://www.w3.org/1999/xlink" id="wifi" viewBox="0 0 512 512">
  <path d="M 36.79510703363914 198.06727828746176 Q 80.63608562691131 158.92354740061162 137.00305810397555 137.00305810397555 L 137.00305810397555 137.00305810397555 L 137.00305810397555 137.00305810397555 Q 192.58715596330276 115.08256880733946 256 115.08256880733946 Q 319.41284403669727 115.08256880733946 374.99694189602445 137.00305810397555 Q 431.3639143730887 158.92354740061162 475.20489296636083 198.06727828746176 Q 489.2966360856269 208.2446483180428 501.822629969419 196.50152905198777 Q 512 182.40978593272172 500.25688073394497 169.88379204892968 Q 450.9357798165138 126.0428134556575 389.08868501529054 101.7737003058104 Q 326.45871559633025 77.5045871559633 256 77.5045871559633 Q 185.54128440366972 77.5045871559633 122.91131498470948 101.7737003058104 Q 61.06422018348624 126.0428134556575 11.743119266055047 169.88379204892968 Q 0 182.40978593272172 10.17737003058104 196.50152905198777 Q 22.70336391437309 208.2446483180428 36.79510703363914 198.06727828746176 L 36.79510703363914 198.06727828746176 Z M 256 252.868501529052 Q 333.5045871559633 254.43425076452598 387.5229357798165 303.75535168195717 Q 400.83180428134557 314.7155963302752 414.1406727828746 302.9724770642202 Q 424.31804281345563 288.8807339449541 412.5749235474006 276.3547400611621 Q 381.2599388379205 247.38837920489297 341.3333333333333 231.7308868501529 Q 301.40672782874617 215.29051987767585 256 215.29051987767585 Q 210.59327217125383 215.29051987767585 170.66666666666666 231.7308868501529 Q 130.7400611620795 247.38837920489297 99.42507645259938 276.3547400611621 Q 87.68195718654434 288.8807339449541 97.85932721712538 302.9724770642202 Q 111.16819571865443 314.7155963302752 124.4770642201835 303.75535168195717 Q 178.4954128440367 254.43425076452598 256 252.868501529052 L 256 252.868501529052 Z M 299.84097859327215 384.3914373088685 Q 299.0581039755352 359.3394495412844 277.9204892966361 346.81345565749234 Q 256 334.28746177370033 234.07951070336392 346.81345565749234 Q 212.94189602446482 359.3394495412844 212.15902140672782 384.3914373088685 Q 212.94189602446482 409.4434250764526 234.07951070336392 421.96941896024464 Q 256 434.4954128440367 277.9204892966361 421.96941896024464 Q 299.0581039755352 409.4434250764526 299.84097859327215 384.3914373088685 L 299.84097859327215 384.3914373088685 Z" />
</symbol>
<!-- shower icon by Free Icons (https://free-icons.github.io/free-icons/) -->
<symbol xmlns="http://www.w3.org/2000/svg" xmlns:xlink="http://www.w3.org/1999/xlink" id="shower" viewBox="0 0 512 512">
  <path d="M 32 116 Q 33 94 47 79 L 47 79 L 47 79 Q 62 65 84 64 Q 105 64 121 79 L 149 107 L 149 107 Q 149 108 150 109 Q 126 143 128 183 Q 131 224 161 255 L 166 260 L 166 260 L 149 277 L 149 277 Q 139 288 149 299 Q 160 309 171 299 L 363 107 L 363 107 Q 373 96 363 85 Q 352 75 341 85 L 324 101 L 324 101 L 319 97 L 319 97 Q 288 67 248 64 Q 207 62 173 86 Q 172 85 171 85 L 143 57 L 143 57 Q 118 32 84 32 Q 48 33 25 57 Q 1 80 0 116 L 0 464 L 0 464 Q 1 479 16 480 Q 31 479 32 464 L 32 116 L 32 116 Z M 183 119 Q 208 96 240 96 L 240 96 L 240 96 Q 272 96 297 119 L 301 124 L 301 124 L 188 237 L 188 237 L 183 233 L 183 233 Q 160 208 160 176 Q 160 144 183 120 L 183 119 Z M 416 200 Q 414 178 392 176 Q 370 178 368 200 Q 370 222 392 224 Q 414 222 416 200 L 416 200 Z M 328 288 Q 350 286 352 264 Q 350 242 328 240 Q 306 242 304 264 Q 306 286 328 288 L 328 288 Z M 288 328 Q 286 306 264 304 Q 242 306 240 328 Q 242 350 264 352 Q 286 350 288 328 L 288 328 Z M 360 384 Q 382 382 384 360 Q 382 338 360 336 Q 338 338 336 360 Q 338 382 360 384 L 360 384 Z M 296 448 Q 318 446 320 424 Q 318 402 296 400 Q 274 402 272 424 Q 274 446 296 448 L 296 448 Z M 424 320 Q 446 318 448 296 Q 446 274 424 272 Q 402 274 400 296 Q 402 318 424 320 L 424 320 Z M 512 232 Q 510 210 488 208 Q 466 210 464 232 Q 466 254 488 256 Q 510 254 512 232 L 512 232 Z" />
</symbol>
<!-- bench-tree icon by Free Icons (https://free-icons.github.io/free-icons/) -->
<symbol xmlns="http://www.w3.org/2000/svg" xmlns:xlink="http://www.w3.org/1999/xlink" id="bench" viewBox="0 0 512 512">
  <path d="M 460 136 Q 458.4 151.2 470.4 160.8 Q 485.6 172 486.4 192 Q 485.6 208 475.2 219.2 Q 464 229.6 448 230.4 L 371.2 230.4 L 371.2 230.4 Q 355.2 229.6 344 219.2 Q 333.6 208 332.8 192 Q 333.6 172 348.8 160.8 Q 360.8 151.2 359.2 136 Q 358.4 132 358.4 128 Q 359.2 106.4 373.6 92 Q 388 77.6 409.6 76.8 Q 431.2 77.6 445.6 92 Q 460 106.4 460.8 128 Q 460.8 132 460 136 L 460 136 Z M 485.6 140 Q 486.4 134.4 486.4 128 Q 485.6 95.2 464 73.6 Q 442.4 52 409.6 51.2 Q 376.8 52 355.2 73.6 Q 333.6 95.2 332.8 128 Q 332.8 134.4 333.6 140 Q 308.8 158.4 307.2 192 Q 308 219.2 325.6 237.6 Q 344 255.2 371.2 256 L 396.8 256 L 396.8 256 L 396.8 448 L 396.8 448 Q 397.6 460 409.6 460.8 Q 421.6 460 422.4 448 L 422.4 256 L 422.4 256 L 448 256 L 448 256 Q 475.2 255.2 493.6 237.6 Q 511.2 219.2 512 192 Q 510.4 158.4 485.6 140 L 485.6 140 Z M 51.2 230.4 L 256 230.4 L 51.2 230.4 L 256 230.4 L 256 281.6 L 256 281.6 L 243.2 281.6 L 51.2 281.6 L 51.2 230.4 L 51.2 230.4 Z M 51.2 307.2 L 51.2 345.6 L 51.2 307.2 L 51.2 345.6 L 38.4 345.6 L 12.8 345.6 Q 0.8 346.4 0 358.4 Q 0.8 370.4 12.8 371.2 L 25.6 371.2 L 25.6 371.2 L 25.6 448 L 25.6 448 Q 26.4 460 38.4 460.8 Q 50.4 460 51.2 448 L 51.2 371.2 L 51.2 371.2 L 64 371.2 L 256 371.2 L 256 448 L 256 448 Q 256.8 460 268.8 460.8 Q 280.8 460 281.6 448 L 281.6 371.2 L 281.6 371.2 L 294.4 371.2 L 294.4 371.2 Q 306.4 370.4 307.2 358.4 Q 306.4 346.4 294.4 345.6 L 268.8 345.6 L 256 345.6 L 256 307.2 L 256 307.2 Q 267.2 307.2 274.4 300 Q 281.6 292.8 281.6 281.6 L 281.6 230.4 L 281.6 230.4 Q 281.6 219.2 274.4 212 Q 267.2 204.8 256 204.8 L 51.2 204.8 L 51.2 204.8 Q 40 204.8 32.8 212 Q 25.6 219.2 25.6 230.4 L 25.6 281.6 L 25.6 281.6 Q 25.6 292.8 32.8 300 Q 40 307.2 51.2 307.2 L 51.2 307.2 Z M 230.4 307.2 L 230.4 345.6 L 230.4 307.2 L 230.4 345.6 L 76.8 345.6 L 76.8 345.6 L 76.8 307.2 L 76.8 307.2 L 230.4 307.2 L 230.4 307.2 Z" />
</symbol>


<!-- umbrella-beach icon by Free Icons (https://free-icons.github.io/free-icons/) -->
<symbol xmlns="http://www.w3.org/2000/svg" xmlns:xlink="http://www.w3.org/1999/xlink" id="umbrella" viewBox="0 0 512 512">
  <path
    d="M 418.82842287694973 120.67937608318891 Q 449.88561525129984 151.736568457539 465.8578856152513 191.66724436741768 L 465.8578856152513 191.66724436741768 L 465.8578856152513 191.66724436741768 Q 481.8301559792028 231.59792027729637 479.1681109185442 275.96533795493934 L 402.8561525129983 248.4575389948007 L 402.8561525129983 248.4575389948007 Q 422.3778162911612 189.89254766031195 419.7157712305026 128.66551126516464 Q 418.82842287694973 125.1161178509532 418.82842287694973 120.67937608318891 L 418.82842287694973 120.67937608318891 Z M 357.6013864818024 80.74870017331023 Q 387.7712305025997 96.72097053726169 391.3206239168111 130.44020797227037 Q 393.98266897746964 186.3431542461005 376.2357019064125 238.69670710571924 L 227.16117850953205 184.5684575389948 L 227.16117850953205 184.5684575389948 Q 246.68284228769497 132.21490467937608 284.8388214904679 91.39688041594454 Q 310.57192374350086 66.55112651646448 345.1785095320624 76.31195840554592 Q 346.95320623916814 77.19930675909879 348.72790294627384 77.19930675909879 Q 353.1646447140381 78.97400346620451 357.6013864818024 80.74870017331023 L 357.6013864818024 80.74870017331023 Z M 354.93934142114387 49.69150779896014 Q 279.51473136915075 24.84575389948007 209.41421143847487 48.80415944540728 L 209.41421143847487 48.80415944540728 L 209.41421143847487 48.80415944540728 Q 139.31369150779895 71.87521663778163 94.94627383015597 133.10225303292896 Q 87.8474870017331 143.75043327556327 92.2842287694974 155.28596187175043 Q 96.72097053726169 166.82149046793762 108.25649913344887 171.2582322357019 L 190.77989601386483 201.42807625649914 L 190.77989601386483 201.42807625649914 L 190.77989601386483 201.42807625649914 L 190.77989601386483 201.42807625649914 L 217.40034662045062 211.1889081455806 L 217.40034662045062 211.1889081455806 L 366.474870017331 265.317157712305 L 366.474870017331 265.317157712305 L 393.0953206239168 275.0779896013865 L 393.0953206239168 275.0779896013865 L 393.0953206239168 275.0779896013865 L 393.0953206239168 275.0779896013865 L 472.0693240901213 303.473136915078 L 472.0693240901213 303.473136915078 Q 484.49220103986136 307.9098786828423 495.14038128249564 301.6984402079723 Q 505.78856152513 295.48700173310226 506.67590987868283 283.0641247833622 Q 512 209.41421143847487 475.6187175043328 147.2998266897747 Q 438.35008665511265 85.18544194107453 369.1369150779896 55.015597920277294 Q 365.58752166377815 53.240901213171576 362.03812824956674 52.353552859618716 L 356.71403812824957 50.578856152513 L 356.71403812824957 50.578856152513 Q 356.71403812824957 50.578856152513 356.71403812824957 50.578856152513 Q 355.8266897746967 49.69150779896014 354.93934142114387 49.69150779896014 L 354.93934142114387 49.69150779896014 Z M 271.528596187175 65.66377816291161 Q 267.9792027729636 68.3258232235702 264.42980935875215 72.76256499133449 Q 221.8370883882149 117.12998266897748 200.5407279029463 174.80762564991335 L 120.67937608318891 145.52512998266897 L 120.67937608318891 145.52512998266897 Q 148.18717504332756 109.14384748700174 187.2305025996534 88.73483535528597 Q 226.2738301559792 68.3258232235702 271.528596187175 65.66377816291161 L 271.528596187175 65.66377816291161 Z M 14.197573656845753 458.7590987868284 Q 0.8873483535528596 459.64644714038127 0 472.95667244367417 Q 0.8873483535528596 486.26689774696706 14.197573656845753 487.1542461005199 L 496.9150779896014 487.1542461005199 L 496.9150779896014 487.1542461005199 Q 510.2253032928943 486.26689774696706 511.11265164644715 472.95667244367417 Q 510.2253032928943 459.64644714038127 496.9150779896014 458.7590987868284 L 224.4991334488735 458.7590987868284 L 224.4991334488735 458.7590987868284 L 293.71230502599656 268.86655112651647 L 293.71230502599656 268.86655112651647 L 267.09185441941077 259.105719237435 L 267.09185441941077 259.105719237435 L 194.32928942807627 458.7590987868284 L 194.32928942807627 458.7590987868284 L 14.197573656845753 458.7590987868284 L 14.197573656845753 458.7590987868284 Z"
  />
</symbol>
<!-- square-parking icon by Free Icons (https://free-icons.github.io/free-icons/) -->
<symbol xmlns="http://www.w3.org/2000/svg" xmlns:xlink="http://www.w3.org/1999/xlink" id="parking2" viewBox="0 0 512 512">
  <path d="M 73.14285714285714 36.57142857142857 Q 57.142857142857146 36.57142857142857 46.857142857142854 46.857142857142854 L 46.857142857142854 46.857142857142854 L 46.857142857142854 46.857142857142854 Q 36.57142857142857 57.142857142857146 36.57142857142857 73.14285714285714 L 36.57142857142857 438.85714285714283 L 36.57142857142857 438.85714285714283 Q 36.57142857142857 454.85714285714283 46.857142857142854 465.14285714285717 Q 57.142857142857146 475.42857142857144 73.14285714285714 475.42857142857144 L 438.85714285714283 475.42857142857144 L 438.85714285714283 475.42857142857144 Q 454.85714285714283 475.42857142857144 465.14285714285717 465.14285714285717 Q 475.42857142857144 454.85714285714283 475.42857142857144 438.85714285714283 L 475.42857142857144 73.14285714285714 L 475.42857142857144 73.14285714285714 Q 475.42857142857144 57.142857142857146 465.14285714285717 46.857142857142854 Q 454.85714285714283 36.57142857142857 438.85714285714283 36.57142857142857 L 73.14285714285714 36.57142857142857 L 73.14285714285714 36.57142857142857 Z M 0 73.14285714285714 Q 1.1428571428571428 42.285714285714285 21.714285714285715 21.714285714285715 L 21.714285714285715 21.714285714285715 L 21.714285714285715 21.714285714285715 Q 42.285714285714285 1.1428571428571428 73.14285714285714 0 L 438.85714285714283 0 L 438.85714285714283 0 Q 469.7142857142857 1.1428571428571428 490.2857142857143 21.714285714285715 Q 510.85714285714283 42.285714285714285 512 73.14285714285714 L 512 438.85714285714283 L 512 438.85714285714283 Q 510.85714285714283 469.7142857142857 490.2857142857143 490.2857142857143 Q 469.7142857142857 510.85714285714283 438.85714285714283 512 L 73.14285714285714 512 L 73.14285714285714 512 Q 42.285714285714285 510.85714285714283 21.714285714285715 490.2857142857143 Q 1.1428571428571428 469.7142857142857 0 438.85714285714283 L 0 73.14285714285714 L 0 73.14285714285714 Z M 201.14285714285714 292.57142857142856 L 292.57142857142856 292.57142857142856 L 201.14285714285714 292.57142857142856 L 292.57142857142856 292.57142857142856 Q 323.42857142857144 291.42857142857144 344 270.85714285714283 Q 364.57142857142856 250.28571428571428 365.7142857142857 219.42857142857142 Q 364.57142857142856 188.57142857142858 344 168 Q 323.42857142857144 147.42857142857142 292.57142857142856 146.28571428571428 L 201.14285714285714 146.28571428571428 L 201.14285714285714 146.28571428571428 L 201.14285714285714 292.57142857142856 L 201.14285714285714 292.57142857142856 Z M 292.57142857142856 329.14285714285717 L 201.14285714285714 329.14285714285717 L 292.57142857142856 329.14285714285717 L 201.14285714285714 329.14285714285717 L 201.14285714285714 384 L 201.14285714285714 384 Q 200 401.14285714285717 182.85714285714286 402.2857142857143 Q 165.71428571428572 401.14285714285717 164.57142857142858 384 L 164.57142857142858 310.85714285714283 L 164.57142857142858 310.85714285714283 L 164.57142857142858 137.14285714285714 L 164.57142857142858 137.14285714285714 Q 166.85714285714286 112 192 109.71428571428571 L 292.57142857142856 109.71428571428571 L 292.57142857142856 109.71428571428571 Q 339.42857142857144 110.85714285714286 370.2857142857143 141.71428571428572 Q 401.14285714285717 172.57142857142858 402.2857142857143 219.42857142857142 Q 401.14285714285717 266.2857142857143 370.2857142857143 297.14285714285717 Q 339.42857142857144 328 292.57142857142856 329.14285714285717 L 292.57142857142856 329.14285714285717 Z" />
</symbol>
<!-- eye icon by Free Icons (https://free-icons.github.io/free-icons/) -->
<symbol xmlns="http://www.w3.org/2000/svg" xmlns:xlink="http://www.w3.org/1999/xlink" id="eye" viewBox="0 0 512 512">
  <path d="M 255.5593803786575 100.90189328743546 Q 212.37865748709123 101.78313253012048 177.1290877796902 118.52667814113597 L 177.1290877796902 118.52667814113597 L 177.1290877796902 118.52667814113597 Q 141.87951807228916 134.38898450946644 114.56110154905336 160.8261617900172 Q 89.0051635111876 184.61962134251291 71.38037865748709 210.17555938037864 Q 54.6368330464716 235.7314974182444 44.943201376936315 256 Q 54.6368330464716 276.26850258175557 71.38037865748709 301.8244406196213 Q 89.0051635111876 327.3803786574871 114.56110154905336 351.17383820998276 Q 141.87951807228916 377.6110154905336 177.1290877796902 393.47332185886404 Q 212.37865748709123 410.2168674698795 255.5593803786575 411.0981067125646 Q 298.74010327022376 410.2168674698795 333.98967297762476 393.47332185886404 Q 369.23924268502583 377.6110154905336 396.5576592082616 351.17383820998276 Q 422.11359724612737 327.3803786574871 439.7383820998279 301.8244406196213 Q 456.48192771084337 276.26850258175557 466.1755593803787 256 Q 456.48192771084337 235.7314974182444 439.7383820998279 210.17555938037864 Q 422.11359724612737 184.61962134251291 396.5576592082616 160.8261617900172 Q 369.23924268502583 134.38898450946644 333.98967297762476 118.52667814113597 Q 298.74010327022376 101.78313253012048 255.5593803786575 100.90189328743546 L 255.5593803786575 100.90189328743546 Z M 85.4802065404475 129.98278829604132 Q 117.20481927710843 100.02065404475043 159.50430292598966 79.75215146299483 L 159.50430292598966 79.75215146299483 L 159.50430292598966 79.75215146299483 Q 201.8037865748709 59.48364888123924 255.5593803786575 58.602409638554214 Q 309.3149741824441 59.48364888123924 351.6144578313253 79.75215146299483 Q 393.9139414802065 100.02065404475043 425.6385542168675 129.98278829604132 Q 456.48192771084337 159.06368330464716 476.750430292599 189.90705679862307 Q 497.01893287435456 220.75043029259896 507.5938037865749 245.42512908777968 Q 512 256 507.5938037865749 266.5748709122203 Q 497.01893287435456 291.249569707401 476.750430292599 322.09294320137695 Q 456.48192771084337 352.93631669535284 425.6385542168675 382.0172117039587 Q 393.9139414802065 411.9793459552496 351.6144578313253 432.24784853700515 Q 309.3149741824441 452.5163511187608 255.5593803786575 453.3975903614458 Q 201.8037865748709 452.5163511187608 159.50430292598966 432.24784853700515 Q 117.20481927710843 411.9793459552496 85.4802065404475 382.0172117039587 Q 54.6368330464716 352.93631669535284 34.36833046471601 322.09294320137695 Q 14.099827882960414 291.249569707401 4.406196213425129 266.5748709122203 Q 0 256 4.406196213425129 245.42512908777968 Q 14.099827882960414 220.75043029259896 34.36833046471601 189.90705679862307 Q 54.6368330464716 159.06368330464716 85.4802065404475 129.98278829604132 L 85.4802065404475 129.98278829604132 Z M 255.5593803786575 326.4991394148021 Q 285.52151462994834 325.61790017211706 305.79001721170397 306.23063683304645 L 305.79001721170397 306.23063683304645 L 305.79001721170397 306.23063683304645 Q 325.1772805507745 285.9621342512909 326.05851979345954 256 Q 325.1772805507745 226.03786574870912 305.79001721170397 205.76936316695353 Q 285.52151462994834 186.38209982788297 255.5593803786575 185.50086058519793 Q 254.67814113597245 185.50086058519793 254.67814113597245 185.50086058519793 Q 254.67814113597245 185.50086058519793 253.79690189328744 185.50086058519793 Q 255.5593803786575 192.55077452667814 255.5593803786575 199.60068846815835 Q 254.67814113597245 223.39414802065406 238.815834767642 239.2564543889845 Q 222.95352839931152 255.118760757315 199.16006884681585 256 Q 192.11015490533563 256 185.06024096385542 254.23752151462995 Q 185.06024096385542 255.118760757315 185.06024096385542 255.118760757315 Q 185.06024096385542 255.118760757315 185.06024096385542 256 Q 185.94148020654046 285.9621342512909 205.32874354561102 306.23063683304645 Q 225.59724612736662 325.61790017211706 255.5593803786575 326.4991394148021 L 255.5593803786575 326.4991394148021 Z M 255.5593803786575 143.2013769363167 Q 286.4027538726334 143.2013769363167 311.9586919104991 158.18244406196214 L 311.9586919104991 158.18244406196214 L 311.9586919104991 158.18244406196214 Q 337.51462994836487 173.16351118760758 353.3769363166954 199.60068846815835 Q 368.3580034423408 226.03786574870912 368.3580034423408 256 Q 368.3580034423408 285.9621342512909 353.3769363166954 312.39931153184165 Q 337.51462994836487 338.8364888123924 311.9586919104991 353.81755593803786 Q 286.4027538726334 368.7986230636833 255.5593803786575 368.7986230636833 Q 224.71600688468158 368.7986230636833 199.16006884681585 353.81755593803786 Q 173.6041308089501 338.8364888123924 157.7418244406196 312.39931153184165 Q 142.76075731497417 285.9621342512909 142.76075731497417 256 Q 142.76075731497417 226.03786574870912 157.7418244406196 199.60068846815835 Q 173.6041308089501 173.16351118760758 199.16006884681585 158.18244406196214 Q 224.71600688468158 143.2013769363167 255.5593803786575 143.2013769363167 L 255.5593803786575 143.2013769363167 Z" />
</symbol>
<!-- bed-front icon by Free Icons (https://free-icons.github.io/free-icons/) -->
<symbol xmlns="http://www.w3.org/2000/svg" xmlns:xlink="http://www.w3.org/1999/xlink" id="bed" viewBox="0 0 512 512">
  <path d="M 64 96 L 64 137 L 64 96 L 64 137 Q 78 128 96 128 L 208 128 L 208 128 Q 238 129 256 150 Q 274 129 304 128 L 416 128 L 416 128 Q 434 128 448 137 L 448 96 L 448 96 Q 448 82 439 73 Q 430 64 416 64 L 96 64 L 96 64 Q 82 64 73 73 Q 64 82 64 96 L 64 96 Z M 480 192 L 480 240 L 480 192 L 480 240 Q 511 263 512 304 L 512 400 L 512 400 L 512 464 L 512 464 Q 511 479 496 480 Q 481 479 480 464 L 480 416 L 480 416 L 32 416 L 32 416 L 32 464 L 32 464 Q 31 479 16 480 Q 1 479 0 464 L 0 400 L 0 400 L 0 304 L 0 304 Q 1 263 32 240 L 32 192 L 32 192 L 32 96 L 32 96 Q 33 69 51 51 Q 69 33 96 32 L 416 32 L 416 32 Q 443 33 461 51 Q 479 69 480 96 L 480 192 L 480 192 Z M 448 226 L 448 192 L 448 226 L 448 192 Q 448 178 439 169 Q 430 160 416 160 L 304 160 L 304 160 Q 290 160 281 169 Q 272 178 272 192 L 272 224 L 272 224 L 432 224 L 432 224 Q 440 224 448 226 L 448 226 Z M 240 224 L 240 192 L 240 224 L 240 192 Q 240 178 231 169 Q 222 160 208 160 L 96 160 L 96 160 Q 82 160 73 169 Q 64 178 64 192 L 64 226 L 64 226 Q 72 224 80 224 L 240 224 L 240 224 Z M 480 304 Q 479 284 466 270 L 466 270 L 466 270 Q 452 257 432 256 L 80 256 L 80 256 Q 60 257 46 270 Q 33 284 32 304 L 32 384 L 32 384 L 480 384 L 480 384 L 480 304 L 480 304 Z" />
</symbol>
<!-- couch icon by Free Icons (https://free-icons.github.io/free-icons/) -->
<symbol xmlns="http://www.w3.org/2000/svg" xmlns:xlink="http://www.w3.org/1999/xlink" id="sofa" viewBox="0 0 512 512">
  <path d="M 358.4 102.4 Q 391.2 103.2 412.8 124.8 L 412.8 124.8 L 412.8 124.8 Q 434.4 146.4 435.2 179.2 L 435.2 209.6 L 435.2 209.6 Q 447.2 204.8 460.8 204.8 L 460.8 179.2 L 460.8 179.2 Q 460 136 431.2 106.4 Q 401.6 77.6 358.4 76.8 L 153.6 76.8 L 153.6 76.8 Q 110.4 77.6 80.8 106.4 Q 52 136 51.2 179.2 L 51.2 204.8 L 51.2 204.8 Q 64.8 204.8 76.8 209.6 L 76.8 179.2 L 76.8 179.2 Q 77.6 146.4 99.2 124.8 Q 120.8 103.2 153.6 102.4 L 358.4 102.4 L 358.4 102.4 Z M 76.8 307.2 L 76.8 384 L 76.8 307.2 L 76.8 384 L 76.8 396.8 L 76.8 396.8 Q 76 408.8 64 409.6 L 38.4 409.6 L 38.4 409.6 Q 26.4 408.8 25.6 396.8 L 25.6 281.6 L 25.6 281.6 Q 25.6 270.4 32.8 263.2 Q 40 256 51.2 256 Q 62.4 256 69.6 263.2 Q 76.8 270.4 76.8 281.6 L 76.8 307.2 L 76.8 307.2 Z M 64 435.2 Q 90.4 433.6 100 409.6 L 412 409.6 L 412 409.6 Q 421.6 433.6 448 435.2 L 473.6 435.2 L 473.6 435.2 Q 489.6 434.4 500.8 424 Q 511.2 412.8 512 396.8 L 512 281.6 L 512 281.6 Q 511.2 260 496.8 245.6 Q 482.4 231.2 460.8 230.4 Q 439.2 231.2 424.8 245.6 Q 410.4 260 409.6 281.6 L 102.4 281.6 L 102.4 281.6 Q 101.6 260 87.2 245.6 Q 72.8 231.2 51.2 230.4 Q 29.6 231.2 15.2 245.6 Q 0.8 260 0 281.6 L 0 396.8 L 0 396.8 Q 0.8 412.8 11.2 424 Q 22.4 434.4 38.4 435.2 L 64 435.2 L 64 435.2 Z M 102.4 384 L 102.4 307.2 L 102.4 384 L 102.4 307.2 L 409.6 307.2 L 409.6 307.2 L 409.6 384 L 409.6 384 L 102.4 384 L 102.4 384 Z M 435.2 396.8 L 435.2 384 L 435.2 396.8 L 435.2 384 L 435.2 307.2 L 435.2 307.2 L 435.2 281.6 L 435.2 281.6 Q 435.2 270.4 442.4 263.2 Q 449.6 256 460.8 256 Q 472 256 479.2 263.2 Q 486.4 270.4 486.4 281.6 L 486.4 396.8 L 486.4 396.8 Q 485.6 408.8 473.6 409.6 L 448 409.6 L 448 409.6 Q 436 408.8 435.2 396.8 L 435.2 396.8 Z" />
</symbol>
<!-- user-group-simple icon by Free Icons (https://free-icons.github.io/free-icons/) -->
<symbol xmlns="http://www.w3.org/2000/svg" xmlns:xlink="http://www.w3.org/1999/xlink" id="people" viewBox="0 0 512 512">
  <path d="M 70.4 160 Q 71.2 127.2 99.2 110.4 Q 128 94.4 156.8 110.4 Q 184.8 127.2 185.6 160 Q 184.8 192.8 156.8 209.6 Q 128 225.6 99.2 209.6 Q 71.2 192.8 70.4 160 L 70.4 160 Z M 211.2 160 Q 211.2 137.6 200 118.4 L 200 118.4 L 200 118.4 Q 188.8 99.2 169.6 88 Q 149.6 76.8 128 76.8 Q 106.4 76.8 86.4 88 Q 67.2 99.2 56 118.4 Q 44.8 137.6 44.8 160 Q 44.8 182.4 56 201.6 Q 67.2 220.8 86.4 232 Q 106.4 243.2 128 243.2 Q 149.6 243.2 169.6 232 Q 188.8 220.8 200 201.6 Q 211.2 182.4 211.2 160 L 211.2 160 Z M 326.4 160 Q 327.2 127.2 355.2 110.4 Q 384 94.4 412.8 110.4 Q 440.8 127.2 441.6 160 Q 440.8 192.8 412.8 209.6 Q 384 225.6 355.2 209.6 Q 327.2 192.8 326.4 160 L 326.4 160 Z M 467.2 160 Q 467.2 137.6 456 118.4 L 456 118.4 L 456 118.4 Q 444.8 99.2 425.6 88 Q 405.6 76.8 384 76.8 Q 362.4 76.8 342.4 88 Q 323.2 99.2 312 118.4 Q 300.8 137.6 300.8 160 Q 300.8 182.4 312 201.6 Q 323.2 220.8 342.4 232 Q 362.4 243.2 384 243.2 Q 405.6 243.2 425.6 232 Q 444.8 220.8 456 201.6 Q 467.2 182.4 467.2 160 L 467.2 160 Z M 166.4 307.2 Q 199.2 308 220.8 329.6 L 220.8 329.6 L 220.8 329.6 Q 242.4 351.2 243.2 384 L 243.2 396.8 L 243.2 396.8 Q 242.4 408.8 230.4 409.6 L 38.4 409.6 L 38.4 409.6 Q 26.4 408.8 25.6 396.8 L 25.6 384 L 25.6 384 Q 26.4 351.2 48 329.6 Q 69.6 308 102.4 307.2 L 166.4 307.2 L 166.4 307.2 Z M 102.4 281.6 Q 59.2 282.4 29.6 311.2 L 29.6 311.2 L 29.6 311.2 Q 0.8 340.8 0 384 L 0 396.8 L 0 396.8 Q 0.8 412.8 11.2 424 Q 22.4 434.4 38.4 435.2 L 230.4 435.2 L 230.4 435.2 Q 246.4 434.4 257.6 424 Q 268 412.8 268.8 396.8 L 268.8 384 L 268.8 384 Q 268 344 243.2 316.8 Q 213.6 283.2 166.4 281.6 L 102.4 281.6 L 102.4 281.6 Z M 345.6 435.2 L 409.6 435.2 L 345.6 435.2 L 409.6 435.2 Q 452.8 434.4 482.4 405.6 Q 511.2 376 512 332.8 L 512 320 L 512 320 Q 511.2 304 500.8 292.8 Q 489.6 282.4 473.6 281.6 L 281.6 281.6 L 281.6 281.6 Q 266.4 281.6 255.2 292 Q 264.8 300.8 272 312 Q 276 307.2 281.6 307.2 L 473.6 307.2 L 473.6 307.2 Q 485.6 308 486.4 320 L 486.4 332.8 L 486.4 332.8 Q 485.6 365.6 464 387.2 Q 442.4 408.8 409.6 409.6 L 345.6 409.6 L 345.6 409.6 Q 315.2 408.8 294.4 390.4 L 294.4 396.8 L 294.4 396.8 Q 294.4 408.8 290.4 419.2 Q 314.4 434.4 345.6 435.2 L 345.6 435.2 Z" />
</symbol>
<!-- bell icon by Free Icons (https://free-icons.github.io/free-icons/) -->
<symbol xmlns="http://www.w3.org/2000/svg" xmlns:xlink="http://www.w3.org/1999/xlink" id="bell" viewBox="0 0 512 512">
  <path d="M 240 16 Q 241 1 256 0 Q 271 1 272 16 L 272 33 L 272 33 Q 334 40 374 84 Q 415 128 416 192 L 416 221 L 416 221 Q 417 289 464 338 L 467 341 L 467 341 Q 480 354 480 372 Q 480 391 467 403 Q 455 416 436 416 L 76 416 L 76 416 Q 57 416 45 403 Q 32 391 32 372 Q 32 354 45 340 L 48 338 L 48 338 Q 95 289 96 221 L 96 192 L 96 192 Q 97 128 138 84 Q 178 40 240 33 L 240 16 L 240 16 Z M 256 64 Q 202 65 165 101 L 165 101 L 165 101 Q 129 138 128 192 L 128 221 L 128 221 Q 127 302 70 360 L 68 363 L 68 363 Q 64 367 64 372 Q 65 383 76 384 L 436 384 L 436 384 Q 447 383 448 372 Q 448 367 444 363 L 442 360 L 442 360 Q 385 302 384 221 L 384 192 L 384 192 Q 383 138 346 101 Q 310 65 256 64 L 256 64 Z M 226 459 Q 234 479 256 480 Q 278 479 286 459 Q 292 445 307 449 Q 320 455 316 469 Q 309 488 293 500 Q 277 512 256 512 Q 235 512 219 500 Q 203 488 196 469 Q 192 455 205 449 Q 220 445 226 459 L 226 459 Z" />
</symbol>
<!-- user-lock icon by Free Icons (https://free-icons.github.io/free-icons/) -->
<symbol xmlns="http://www.w3.org/2000/svg" xmlns:xlink="http://www.w3.org/1999/xlink" id="lock" viewBox="0 0 512 512">
  <path d="M 102.4 153.6 Q 102.4 132.8 112.8 115.2 L 112.8 115.2 L 112.8 115.2 Q 123.2 97.6 140.8 87.2 Q 159.2 76.8 179.2 76.8 Q 199.2 76.8 217.6 87.2 Q 235.2 97.6 245.6 115.2 Q 256 132.8 256 153.6 Q 256 174.4 245.6 192 Q 235.2 209.6 217.6 220 Q 199.2 230.4 179.2 230.4 Q 159.2 230.4 140.8 220 Q 123.2 209.6 112.8 192 Q 102.4 174.4 102.4 153.6 L 102.4 153.6 Z M 281.6 153.6 Q 281.6 125.6 268 102.4 L 268 102.4 L 268 102.4 Q 254.4 79.2 230.4 64.8 Q 206.4 51.2 179.2 51.2 Q 152 51.2 128 64.8 Q 104 79.2 90.4 102.4 Q 76.8 125.6 76.8 153.6 Q 76.8 181.6 90.4 204.8 Q 104 228 128 242.4 Q 152 256 179.2 256 Q 206.4 256 230.4 242.4 Q 254.4 228 268 204.8 Q 281.6 181.6 281.6 153.6 L 281.6 153.6 Z M 25.6 435.2 Q 27.2 386.4 60.8 353.6 L 60.8 353.6 L 60.8 353.6 Q 93.6 321.6 142.4 320 L 216 320 L 216 320 Q 244 320 267.2 332 Q 291.2 344 307.2 364 L 307.2 332.8 L 307.2 332.8 Q 307.2 330.4 307.2 328 Q 268.8 295.2 216 294.4 L 142.4 294.4 L 142.4 294.4 Q 82.4 296 41.6 336 Q 1.6 376.8 0 436.8 Q 0 447.2 7.2 453.6 Q 13.6 460.8 24 460.8 L 314.4 460.8 L 314.4 460.8 Q 307.2 449.6 307.2 435.2 L 25.6 435.2 L 25.6 435.2 Z M 422.4 230.4 Q 438.4 231.2 449.6 241.6 L 449.6 241.6 L 449.6 241.6 Q 460 252.8 460.8 268.8 L 460.8 307.2 L 460.8 307.2 L 384 307.2 L 384 307.2 L 384 268.8 L 384 268.8 Q 384.8 252.8 395.2 241.6 Q 406.4 231.2 422.4 230.4 L 422.4 230.4 Z M 358.4 268.8 L 358.4 307.2 L 358.4 268.8 L 358.4 307.2 Q 347.2 307.2 340 314.4 Q 332.8 321.6 332.8 332.8 L 332.8 435.2 L 332.8 435.2 Q 332.8 446.4 340 453.6 Q 347.2 460.8 358.4 460.8 L 486.4 460.8 L 486.4 460.8 Q 497.6 460.8 504.8 453.6 Q 512 446.4 512 435.2 L 512 332.8 L 512 332.8 Q 512 321.6 504.8 314.4 Q 497.6 307.2 486.4 307.2 L 486.4 268.8 L 486.4 268.8 Q 485.6 241.6 468 223.2 Q 449.6 205.6 422.4 204.8 Q 395.2 205.6 376.8 223.2 Q 359.2 241.6 358.4 268.8 L 358.4 268.8 Z M 358.4 332.8 L 486.4 332.8 L 358.4 332.8 L 486.4 332.8 L 486.4 435.2 L 486.4 435.2 L 358.4 435.2 L 358.4 435.2 L 358.4 332.8 L 358.4 332.8 Z" />
</symbol>
<!-- user-lock icon by Free Icons (https://free-icons.github.io/free-icons/) -->
<symbol xmlns="http://www.w3.org/2000/svg" xmlns:xlink="http://www.w3.org/1999/xlink" id="lockb"  viewBox="0 0 512 512">
  <path
    d="M 179.2 256 Q 207.2 256 230.4 242.4 L 230.4 242.4 L 230.4 242.4 Q 253.6 228.8 268 204.8 Q 281.6 180.8 281.6 153.6 Q 281.6 126.4 268 102.4 Q 253.6 78.4 230.4 64.8 Q 207.2 51.2 179.2 51.2 Q 151.2 51.2 128 64.8 Q 104.8 78.4 90.4 102.4 Q 76.8 126.4 76.8 153.6 Q 76.8 180.8 90.4 204.8 Q 104.8 228.8 128 242.4 Q 151.2 256 179.2 256 L 179.2 256 Z M 142.4 294.4 Q 82.4 296 41.6 336 L 41.6 336 L 41.6 336 Q 1.6 376.8 0 436.8 Q 0 447.2 7.2 453.6 Q 13.6 460.8 24 460.8 L 314.4 460.8 L 314.4 460.8 Q 307.2 449.6 307.2 435.2 L 307.2 332.8 L 307.2 332.8 Q 307.2 330.4 307.2 328 Q 268.8 295.2 216 294.4 L 142.4 294.4 L 142.4 294.4 Z M 422.4 243.2 Q 433.6 243.2 440.8 250.4 L 440.8 250.4 L 440.8 250.4 Q 448 257.6 448 268.8 L 448 307.2 L 448 307.2 L 396.8 307.2 L 396.8 307.2 L 396.8 268.8 L 396.8 268.8 Q 396.8 257.6 404 250.4 Q 411.2 243.2 422.4 243.2 L 422.4 243.2 Z M 358.4 268.8 L 358.4 307.2 L 358.4 268.8 L 358.4 307.2 Q 347.2 307.2 340 314.4 Q 332.8 321.6 332.8 332.8 L 332.8 435.2 L 332.8 435.2 Q 332.8 446.4 340 453.6 Q 347.2 460.8 358.4 460.8 L 486.4 460.8 L 486.4 460.8 Q 497.6 460.8 504.8 453.6 Q 512 446.4 512 435.2 L 512 332.8 L 512 332.8 Q 512 321.6 504.8 314.4 Q 497.6 307.2 486.4 307.2 L 486.4 268.8 L 486.4 268.8 Q 485.6 241.6 468 223.2 Q 449.6 205.6 422.4 204.8 Q 395.2 205.6 376.8 223.2 Q 359.2 241.6 358.4 268.8 L 358.4 268.8 Z"
  />
  </symbol>
  <!-- filter-list icon by Free Icons (https://free-icons.github.io/free-icons/) -->
  <symbol xmlns="http://www.w3.org/2000/svg" xmlns:xlink="http://www.w3.org/1999/xlink" id="filter" viewBox="0 0 512 512">
    <path d="M 28 64 Q 16 64 8 72 L 8 72 L 8 72 Q 0 80 0 92 Q 0 102 7 110 L 112 230 L 112 230 L 112 360 L 112 360 Q 112 376 125 386 L 201 443 L 201 443 Q 207 448 216 448 Q 238 446 240 424 L 240 230 L 240 230 L 345 110 L 345 110 Q 352 102 352 92 Q 352 80 344 72 Q 336 64 324 64 L 28 64 L 28 64 Z M 140 214 L 37 96 L 140 214 L 37 96 L 315 96 L 315 96 L 212 214 L 212 214 Q 208 218 208 224 L 208 408 L 208 408 L 144 360 L 144 360 L 144 224 L 144 224 Q 144 218 140 214 L 140 214 Z M 336 400 Q 321 401 320 416 Q 321 431 336 432 L 496 432 L 496 432 Q 511 431 512 416 Q 511 401 496 400 L 336 400 L 336 400 Z M 320 256 Q 321 271 336 272 L 496 272 L 496 272 Q 511 271 512 256 Q 511 241 496 240 L 336 240 L 336 240 Q 321 241 320 256 L 320 256 Z M 400 80 Q 385 81 384 96 Q 385 111 400 112 L 496 112 L 496 112 Q 511 111 512 96 Q 511 81 496 80 L 400 80 L 400 80 Z" />
  </symbol>
  <symbol xmlns="http://www.w3.org/2000/svg" viewBox="0 0 512 453" id="share">
    <path d="M 307 8 Q 289 17 288 37 L 288 101 L 288 101 L 176 101 L 176 101 Q 101 103 52 153 Q 2 202 0 277 Q 1 333 22 370 Q 42 407 66 427 Q 90 446 100 451 Q 104 453 108 453 Q 126 451 128 433 Q 127 422 118 414 Q 111 407 104 393 Q 97 380 96 357 Q 97 316 124 289 Q 151 262 192 261 L 288 261 L 288 261 L 288 325 L 288 325 Q 289 345 307 354 Q 326 362 341 349 L 501 205 L 501 205 Q 512 195 512 181 Q 512 167 501 157 L 341 13 L 341 13 Q 326 0 307 8 L 307 8 Z" />
  </symbol>
  <symbol xmlns="http://www.w3.org/2000/svg" id="at" viewBox="0 0 512 512">
    <path d="M 256 48 Q 168 50 109 109 L 109 109 L 109 109 Q 50 168 48 256 Q 50 344 109 403 Q 168 462 256 464 Q 278 466 280 488 Q 278 510 256 512 Q 184 511 127 477 Q 69 443 35 385 Q 1 328 0 256 Q 1 184 35 127 Q 69 69 127 35 Q 184 1 256 0 Q 328 1 385 35 Q 443 69 477 127 Q 511 184 512 256 L 512 284 L 512 284 Q 511 323 485 349 Q 459 375 420 376 Q 371 374 345 337 Q 310 374 256 376 Q 205 375 171 341 Q 137 307 136 256 Q 137 205 171 171 Q 205 137 256 136 Q 300 137 332 163 Q 339 153 352 152 Q 374 154 376 176 L 376 256 L 376 256 L 376 284 L 376 284 Q 376 303 389 315 Q 401 328 420 328 Q 439 328 451 315 Q 464 303 464 284 L 464 256 L 464 256 Q 462 168 403 109 Q 344 50 256 48 L 256 48 Z M 328 256 Q 327 215 292 194 Q 256 174 220 194 Q 185 215 184 256 Q 185 297 220 318 Q 256 338 292 318 Q 327 297 328 256 L 328 256 Z" />
  </symbol>
  <!-- check icon by Free Icons (https://free-icons.github.io/free-icons/) -->
  <symbol xmlns="http://www.w3.org/2000/svg" id="check2" viewBox="0 0 512 512">
    <path d="M 496.4848484848485 90.87445887445888 Q 512 109.71428571428571 496.4848484848485 128.55411255411255 L 203.91341991341992 421.12554112554113 L 203.91341991341992 421.12554112554113 Q 185.07359307359306 436.64069264069263 166.23376623376623 421.12554112554113 L 15.515151515151516 270.4069264069264 L 15.515151515151516 270.4069264069264 Q 0 251.56709956709958 15.515151515151516 232.72727272727272 Q 34.35497835497836 217.21212121212122 53.1948051948052 232.72727272727272 L 185.07359307359306 364.6060606060606 L 185.07359307359306 364.6060606060606 L 458.8051948051948 90.87445887445888 L 458.8051948051948 90.87445887445888 Q 477.64502164502164 75.35930735930737 496.4848484848485 90.87445887445888 L 496.4848484848485 90.87445887445888 Z" />
  </symbol>
  <symbol xmlns="http://www.w3.org/2000/svg" id="hourglass" viewBox="0 0 512 512">
    <path d="M 64 488 Q 66 510 88 512 L 424 512 L 424 512 Q 446 510 448 488 Q 446 466 424 464 L 416 464 L 416 464 L 416 445 L 416 445 Q 415 382 372 338 L 290 256 L 290 256 L 371 175 L 371 175 Q 415 130 416 67 L 416 48 L 416 48 L 424 48 L 424 48 Q 446 46 448 24 Q 446 2 424 0 L 88 0 L 88 0 Q 66 2 64 24 Q 66 46 88 48 L 96 48 L 96 48 L 96 67 L 96 67 Q 97 130 141 175 L 222 256 L 222 256 L 141 338 L 141 338 Q 97 382 96 445 L 96 464 L 96 464 L 88 464 L 88 464 Q 66 466 64 488 L 64 488 Z M 148 96 Q 144 82 144 67 L 144 48 L 144 48 L 368 48 L 368 48 L 368 67 L 368 67 Q 368 82 364 96 L 148 96 L 148 96 Z M 338 372 Q 367 402 368 445 L 368 464 L 368 464 L 144 464 L 144 464 L 144 445 L 144 445 Q 145 402 175 372 L 256 290 L 256 290 L 338 371 L 338 372 Z" />
  </symbol>
</svg>
